<?xml version="1.0" encoding="utf-8" standalone="no"?>
<!DOCTYPE svg PUBLIC "-//W3C//DTD SVG 1.1//EN"
  "http://www.w3.org/Graphics/SVG/1.1/DTD/svg11.dtd">
<svg xmlns:xlink="http://www.w3.org/1999/xlink" width="568.738634pt" height="235.958125pt" viewBox="0 0 568.738634 235.958125" xmlns="http://www.w3.org/2000/svg" version="1.1">
 <metadata>
  <rdf:RDF xmlns:dc="http://purl.org/dc/elements/1.1/" xmlns:cc="http://creativecommons.org/ns#" xmlns:rdf="http://www.w3.org/1999/02/22-rdf-syntax-ns#">
   <cc:Work>
    <dc:type rdf:resource="http://purl.org/dc/dcmitype/StillImage"/>
    <dc:date>2022-09-29T13:36:59.792188</dc:date>
    <dc:format>image/svg+xml</dc:format>
    <dc:creator>
     <cc:Agent>
      <dc:title>Matplotlib v3.5.2, https://matplotlib.org/</dc:title>
     </cc:Agent>
    </dc:creator>
   </cc:Work>
  </rdf:RDF>
 </metadata>
 <defs>
  <style type="text/css">*{stroke-linejoin: round; stroke-linecap: butt}</style>
 </defs>
 <g id="figure_1">
  <g id="patch_1">
   <path d="M 0 235.958125 
L 568.738634 235.958125 
L 568.738634 -0 
L 0 -0 
z
" style="fill: #ffffff"/>
  </g>
  <g id="axes_1">
   <g id="patch_2">
    <path d="M 26.925 159.038125 
L 269.523527 159.038125 
L 269.523527 22.318125 
L 26.925 22.318125 
z
" style="fill: #ffffff"/>
   </g>
   <g id="patch_3">
    <path d="M 37.952056 153.376253 
L 43.465662 153.376253 
L 43.465662 140.148165 
L 37.952056 140.148165 
L 37.952056 153.376253 
z
" clip-path="url(#p41d6168113)" style="fill: none; stroke: #808080; stroke-linejoin: miter"/>
   </g>
   <g id="matplotlib.axis_1">
    <g id="xtick_1">
     <g id="line2d_1">
      <path d="M 37.952056 159.038125 
L 37.952056 22.318125 
" clip-path="url(#p41d6168113)" style="fill: none; stroke: #b0b0b0; stroke-opacity: 0.5; stroke-width: 0.8; stroke-linecap: square"/>
     </g>
     <g id="line2d_2">
      <defs>
       <path id="m73ef637df3" d="M 0 0 
L 0 3.5 
" style="stroke: #000000; stroke-width: 0.8"/>
      </defs>
      <g>
       <use xlink:href="#m73ef637df3" x="37.952056" y="159.038125" style="stroke: #000000; stroke-width: 0.8"/>
      </g>
     </g>
     <g id="text_1">
      <!-- 0K -->
      <g transform="translate(31.4919 173.636562)scale(0.1 -0.1)">
       <defs>
        <path id="DejaVuSans-30" d="M 2034 4250 
Q 1547 4250 1301 3770 
Q 1056 3291 1056 2328 
Q 1056 1369 1301 889 
Q 1547 409 2034 409 
Q 2525 409 2770 889 
Q 3016 1369 3016 2328 
Q 3016 3291 2770 3770 
Q 2525 4250 2034 4250 
z
M 2034 4750 
Q 2819 4750 3233 4129 
Q 3647 3509 3647 2328 
Q 3647 1150 3233 529 
Q 2819 -91 2034 -91 
Q 1250 -91 836 529 
Q 422 1150 422 2328 
Q 422 3509 836 4129 
Q 1250 4750 2034 4750 
z
" transform="scale(0.015625)"/>
        <path id="DejaVuSans-4b" d="M 628 4666 
L 1259 4666 
L 1259 2694 
L 3353 4666 
L 4166 4666 
L 1850 2491 
L 4331 0 
L 3500 0 
L 1259 2247 
L 1259 0 
L 628 0 
L 628 4666 
z
" transform="scale(0.015625)"/>
       </defs>
       <use xlink:href="#DejaVuSans-30"/>
       <use xlink:href="#DejaVuSans-4b" x="63.623047"/>
      </g>
     </g>
    </g>
    <g id="xtick_2">
     <g id="line2d_3">
      <path d="M 83.898778 159.038125 
L 83.898778 22.318125 
" clip-path="url(#p41d6168113)" style="fill: none; stroke: #b0b0b0; stroke-opacity: 0.5; stroke-width: 0.8; stroke-linecap: square"/>
     </g>
     <g id="line2d_4">
      <g>
       <use xlink:href="#m73ef637df3" x="83.898778" y="159.038125" style="stroke: #000000; stroke-width: 0.8"/>
      </g>
     </g>
     <g id="text_2">
      <!-- 0.5K -->
      <g transform="translate(72.668309 173.636562)scale(0.1 -0.1)">
       <defs>
        <path id="DejaVuSans-2e" d="M 684 794 
L 1344 794 
L 1344 0 
L 684 0 
L 684 794 
z
" transform="scale(0.015625)"/>
        <path id="DejaVuSans-35" d="M 691 4666 
L 3169 4666 
L 3169 4134 
L 1269 4134 
L 1269 2991 
Q 1406 3038 1543 3061 
Q 1681 3084 1819 3084 
Q 2600 3084 3056 2656 
Q 3513 2228 3513 1497 
Q 3513 744 3044 326 
Q 2575 -91 1722 -91 
Q 1428 -91 1123 -41 
Q 819 9 494 109 
L 494 744 
Q 775 591 1075 516 
Q 1375 441 1709 441 
Q 2250 441 2565 725 
Q 2881 1009 2881 1497 
Q 2881 1984 2565 2268 
Q 2250 2553 1709 2553 
Q 1456 2553 1204 2497 
Q 953 2441 691 2322 
L 691 4666 
z
" transform="scale(0.015625)"/>
       </defs>
       <use xlink:href="#DejaVuSans-30"/>
       <use xlink:href="#DejaVuSans-2e" x="63.623047"/>
       <use xlink:href="#DejaVuSans-35" x="95.410156"/>
       <use xlink:href="#DejaVuSans-4b" x="159.033203"/>
      </g>
     </g>
    </g>
    <g id="xtick_3">
     <g id="line2d_5">
      <path d="M 129.8455 159.038125 
L 129.8455 22.318125 
" clip-path="url(#p41d6168113)" style="fill: none; stroke: #b0b0b0; stroke-opacity: 0.5; stroke-width: 0.8; stroke-linecap: square"/>
     </g>
     <g id="line2d_6">
      <g>
       <use xlink:href="#m73ef637df3" x="129.8455" y="159.038125" style="stroke: #000000; stroke-width: 0.8"/>
      </g>
     </g>
     <g id="text_3">
      <!-- 1K -->
      <g transform="translate(123.385343 173.636562)scale(0.1 -0.1)">
       <defs>
        <path id="DejaVuSans-31" d="M 794 531 
L 1825 531 
L 1825 4091 
L 703 3866 
L 703 4441 
L 1819 4666 
L 2450 4666 
L 2450 531 
L 3481 531 
L 3481 0 
L 794 0 
L 794 531 
z
" transform="scale(0.015625)"/>
       </defs>
       <use xlink:href="#DejaVuSans-31"/>
       <use xlink:href="#DejaVuSans-4b" x="63.623047"/>
      </g>
     </g>
    </g>
    <g id="xtick_4">
     <g id="line2d_7">
      <path d="M 175.792222 159.038125 
L 175.792222 22.318125 
" clip-path="url(#p41d6168113)" style="fill: none; stroke: #b0b0b0; stroke-opacity: 0.5; stroke-width: 0.8; stroke-linecap: square"/>
     </g>
     <g id="line2d_8">
      <g>
       <use xlink:href="#m73ef637df3" x="175.792222" y="159.038125" style="stroke: #000000; stroke-width: 0.8"/>
      </g>
     </g>
     <g id="text_4">
      <!-- 1.5K -->
      <g transform="translate(164.561753 173.636562)scale(0.1 -0.1)">
       <use xlink:href="#DejaVuSans-31"/>
       <use xlink:href="#DejaVuSans-2e" x="63.623047"/>
       <use xlink:href="#DejaVuSans-35" x="95.410156"/>
       <use xlink:href="#DejaVuSans-4b" x="159.033203"/>
      </g>
     </g>
    </g>
    <g id="xtick_5">
     <g id="line2d_9">
      <path d="M 221.738943 159.038125 
L 221.738943 22.318125 
" clip-path="url(#p41d6168113)" style="fill: none; stroke: #b0b0b0; stroke-opacity: 0.5; stroke-width: 0.8; stroke-linecap: square"/>
     </g>
     <g id="line2d_10">
      <g>
       <use xlink:href="#m73ef637df3" x="221.738943" y="159.038125" style="stroke: #000000; stroke-width: 0.8"/>
      </g>
     </g>
     <g id="text_5">
      <!-- 2K -->
      <g transform="translate(215.278787 173.636562)scale(0.1 -0.1)">
       <defs>
        <path id="DejaVuSans-32" d="M 1228 531 
L 3431 531 
L 3431 0 
L 469 0 
L 469 531 
Q 828 903 1448 1529 
Q 2069 2156 2228 2338 
Q 2531 2678 2651 2914 
Q 2772 3150 2772 3378 
Q 2772 3750 2511 3984 
Q 2250 4219 1831 4219 
Q 1534 4219 1204 4116 
Q 875 4013 500 3803 
L 500 4441 
Q 881 4594 1212 4672 
Q 1544 4750 1819 4750 
Q 2544 4750 2975 4387 
Q 3406 4025 3406 3419 
Q 3406 3131 3298 2873 
Q 3191 2616 2906 2266 
Q 2828 2175 2409 1742 
Q 1991 1309 1228 531 
z
" transform="scale(0.015625)"/>
       </defs>
       <use xlink:href="#DejaVuSans-32"/>
       <use xlink:href="#DejaVuSans-4b" x="63.623047"/>
      </g>
     </g>
    </g>
    <g id="xtick_6">
     <g id="line2d_11">
      <path d="M 267.685665 159.038125 
L 267.685665 22.318125 
" clip-path="url(#p41d6168113)" style="fill: none; stroke: #b0b0b0; stroke-opacity: 0.5; stroke-width: 0.8; stroke-linecap: square"/>
     </g>
     <g id="line2d_12">
      <g>
       <use xlink:href="#m73ef637df3" x="267.685665" y="159.038125" style="stroke: #000000; stroke-width: 0.8"/>
      </g>
     </g>
     <g id="text_6">
      <!-- 2.5K -->
      <g transform="translate(256.455197 173.636562)scale(0.1 -0.1)">
       <use xlink:href="#DejaVuSans-32"/>
       <use xlink:href="#DejaVuSans-2e" x="63.623047"/>
       <use xlink:href="#DejaVuSans-35" x="95.410156"/>
       <use xlink:href="#DejaVuSans-4b" x="159.033203"/>
      </g>
     </g>
    </g>
    <g id="text_7">
     <!-- Minutes -->
     <g transform="translate(128.542232 187.314687)scale(0.1 -0.1)">
      <defs>
       <path id="DejaVuSans-4d" d="M 628 4666 
L 1569 4666 
L 2759 1491 
L 3956 4666 
L 4897 4666 
L 4897 0 
L 4281 0 
L 4281 4097 
L 3078 897 
L 2444 897 
L 1241 4097 
L 1241 0 
L 628 0 
L 628 4666 
z
" transform="scale(0.015625)"/>
       <path id="DejaVuSans-69" d="M 603 3500 
L 1178 3500 
L 1178 0 
L 603 0 
L 603 3500 
z
M 603 4863 
L 1178 4863 
L 1178 4134 
L 603 4134 
L 603 4863 
z
" transform="scale(0.015625)"/>
       <path id="DejaVuSans-6e" d="M 3513 2113 
L 3513 0 
L 2938 0 
L 2938 2094 
Q 2938 2591 2744 2837 
Q 2550 3084 2163 3084 
Q 1697 3084 1428 2787 
Q 1159 2491 1159 1978 
L 1159 0 
L 581 0 
L 581 3500 
L 1159 3500 
L 1159 2956 
Q 1366 3272 1645 3428 
Q 1925 3584 2291 3584 
Q 2894 3584 3203 3211 
Q 3513 2838 3513 2113 
z
" transform="scale(0.015625)"/>
       <path id="DejaVuSans-75" d="M 544 1381 
L 544 3500 
L 1119 3500 
L 1119 1403 
Q 1119 906 1312 657 
Q 1506 409 1894 409 
Q 2359 409 2629 706 
Q 2900 1003 2900 1516 
L 2900 3500 
L 3475 3500 
L 3475 0 
L 2900 0 
L 2900 538 
Q 2691 219 2414 64 
Q 2138 -91 1772 -91 
Q 1169 -91 856 284 
Q 544 659 544 1381 
z
M 1991 3584 
L 1991 3584 
z
" transform="scale(0.015625)"/>
       <path id="DejaVuSans-74" d="M 1172 4494 
L 1172 3500 
L 2356 3500 
L 2356 3053 
L 1172 3053 
L 1172 1153 
Q 1172 725 1289 603 
Q 1406 481 1766 481 
L 2356 481 
L 2356 0 
L 1766 0 
Q 1100 0 847 248 
Q 594 497 594 1153 
L 594 3053 
L 172 3053 
L 172 3500 
L 594 3500 
L 594 4494 
L 1172 4494 
z
" transform="scale(0.015625)"/>
       <path id="DejaVuSans-65" d="M 3597 1894 
L 3597 1613 
L 953 1613 
Q 991 1019 1311 708 
Q 1631 397 2203 397 
Q 2534 397 2845 478 
Q 3156 559 3463 722 
L 3463 178 
Q 3153 47 2828 -22 
Q 2503 -91 2169 -91 
Q 1331 -91 842 396 
Q 353 884 353 1716 
Q 353 2575 817 3079 
Q 1281 3584 2069 3584 
Q 2775 3584 3186 3129 
Q 3597 2675 3597 1894 
z
M 3022 2063 
Q 3016 2534 2758 2815 
Q 2500 3097 2075 3097 
Q 1594 3097 1305 2825 
Q 1016 2553 972 2059 
L 3022 2063 
z
" transform="scale(0.015625)"/>
       <path id="DejaVuSans-73" d="M 2834 3397 
L 2834 2853 
Q 2591 2978 2328 3040 
Q 2066 3103 1784 3103 
Q 1356 3103 1142 2972 
Q 928 2841 928 2578 
Q 928 2378 1081 2264 
Q 1234 2150 1697 2047 
L 1894 2003 
Q 2506 1872 2764 1633 
Q 3022 1394 3022 966 
Q 3022 478 2636 193 
Q 2250 -91 1575 -91 
Q 1294 -91 989 -36 
Q 684 19 347 128 
L 347 722 
Q 666 556 975 473 
Q 1284 391 1588 391 
Q 1994 391 2212 530 
Q 2431 669 2431 922 
Q 2431 1156 2273 1281 
Q 2116 1406 1581 1522 
L 1381 1569 
Q 847 1681 609 1914 
Q 372 2147 372 2553 
Q 372 3047 722 3315 
Q 1072 3584 1716 3584 
Q 2034 3584 2315 3537 
Q 2597 3491 2834 3397 
z
" transform="scale(0.015625)"/>
      </defs>
      <use xlink:href="#DejaVuSans-4d"/>
      <use xlink:href="#DejaVuSans-69" x="86.279297"/>
      <use xlink:href="#DejaVuSans-6e" x="114.0625"/>
      <use xlink:href="#DejaVuSans-75" x="177.441406"/>
      <use xlink:href="#DejaVuSans-74" x="240.820312"/>
      <use xlink:href="#DejaVuSans-65" x="280.029297"/>
      <use xlink:href="#DejaVuSans-73" x="341.552734"/>
     </g>
    </g>
   </g>
   <g id="matplotlib.axis_2">
    <g id="ytick_1">
     <g id="line2d_13">
      <path d="M 26.925 153.376253 
L 269.523527 153.376253 
" clip-path="url(#p41d6168113)" style="fill: none; stroke: #b0b0b0; stroke-opacity: 0.5; stroke-width: 0.8; stroke-linecap: square"/>
     </g>
     <g id="line2d_14">
      <defs>
       <path id="me20ed593f2" d="M 0 0 
L -3.5 0 
" style="stroke: #000000; stroke-width: 0.8"/>
      </defs>
      <g>
       <use xlink:href="#me20ed593f2" x="26.925" y="153.376253" style="stroke: #000000; stroke-width: 0.8"/>
      </g>
     </g>
     <g id="text_8">
      <!-- 0 -->
      <g transform="translate(13.5625 157.175472)scale(0.1 -0.1)">
       <use xlink:href="#DejaVuSans-30"/>
      </g>
     </g>
    </g>
    <g id="ytick_2">
     <g id="line2d_15">
      <path d="M 26.925 109.282625 
L 269.523527 109.282625 
" clip-path="url(#p41d6168113)" style="fill: none; stroke: #b0b0b0; stroke-opacity: 0.5; stroke-width: 0.8; stroke-linecap: square"/>
     </g>
     <g id="line2d_16">
      <g>
       <use xlink:href="#me20ed593f2" x="26.925" y="109.282625" style="stroke: #000000; stroke-width: 0.8"/>
      </g>
     </g>
     <g id="text_9">
      <!-- 5 -->
      <g transform="translate(13.5625 113.081843)scale(0.1 -0.1)">
       <use xlink:href="#DejaVuSans-35"/>
      </g>
     </g>
    </g>
    <g id="ytick_3">
     <g id="line2d_17">
      <path d="M 26.925 65.188996 
L 269.523527 65.188996 
" clip-path="url(#p41d6168113)" style="fill: none; stroke: #b0b0b0; stroke-opacity: 0.5; stroke-width: 0.8; stroke-linecap: square"/>
     </g>
     <g id="line2d_18">
      <g>
       <use xlink:href="#me20ed593f2" x="26.925" y="65.188996" style="stroke: #000000; stroke-width: 0.8"/>
      </g>
     </g>
     <g id="text_10">
      <!-- 10 -->
      <g transform="translate(7.2 68.988215)scale(0.1 -0.1)">
       <use xlink:href="#DejaVuSans-31"/>
       <use xlink:href="#DejaVuSans-30" x="63.623047"/>
      </g>
     </g>
    </g>
   </g>
   <g id="line2d_19">
    <path d="M 37.952206 152.749275 
L 39.05769 152.183555 
L 40.163174 150.838345 
L 41.821401 148.004628 
L 47.348822 138.041287 
L 48.454306 136.676421 
L 49.559791 135.85467 
L 51.218017 134.70548 
L 52.876244 133.149843 
L 56.745439 129.248825 
L 58.956407 127.52443 
L 60.061891 125.788343 
L 61.720118 122.545045 
L 64.483829 117.965886 
L 65.589313 115.622421 
L 66.694797 112.674841 
L 67.800282 108.835149 
L 68.905766 105.025841 
L 70.01125 102.080521 
L 70.563992 101.38825 
L 71.669477 100.743353 
L 72.222219 100.70774 
L 72.774961 100.839029 
L 73.327703 100.625418 
L 74.433187 99.811538 
L 74.985929 99.138463 
L 77.74964 94.643409 
L 78.855124 92.232114 
L 79.960609 89.542095 
L 80.513351 88.273728 
L 81.066093 87.283852 
L 82.171577 86.04068 
L 82.724319 85.571586 
L 84.382546 84.780081 
L 88.251741 83.494187 
L 92.120936 80.253234 
L 93.22642 79.800874 
L 94.884647 79.450429 
L 95.990131 78.881594 
L 98.201099 77.352643 
L 101.517552 76.362228 
L 102.070294 76.355668 
L 103.728521 76.778293 
L 104.834005 76.959977 
L 105.939489 76.869219 
L 106.492232 76.647221 
L 107.044974 76.204991 
L 107.597716 75.451639 
L 110.361427 70.796138 
L 114.230622 66.449299 
L 114.783364 66.183422 
L 115.888848 65.975189 
L 116.994332 66.053696 
L 117.547074 65.922072 
L 118.099817 65.480355 
L 119.205301 63.802197 
L 120.310785 62.238526 
L 120.863527 61.899895 
L 121.416269 61.979764 
L 122.521754 62.333223 
L 123.074496 62.367415 
L 123.627238 62.229172 
L 125.285464 61.439247 
L 130.260144 59.853097 
L 131.91837 59.690244 
L 132.471112 59.46259 
L 133.576597 58.64206 
L 134.682081 57.868039 
L 135.234823 57.882004 
L 135.787565 58.176225 
L 136.893049 59.075349 
L 137.445792 59.374142 
L 137.998534 59.349763 
L 138.551276 58.987683 
L 140.209502 57.194875 
L 140.762244 56.796052 
L 142.420471 56.260264 
L 142.973213 55.935512 
L 144.078697 54.75847 
L 145.184182 53.656168 
L 147.947892 51.245648 
L 149.606119 49.236808 
L 150.158861 48.873956 
L 150.711603 48.780854 
L 151.264345 48.91851 
L 152.369829 49.633082 
L 152.922572 49.973699 
L 154.028056 50.221777 
L 155.13354 49.876792 
L 156.239024 49.578708 
L 159.555477 48.966846 
L 160.108219 49.009707 
L 160.660962 49.250398 
L 161.766446 49.981471 
L 162.87193 50.333769 
L 163.424672 50.167937 
L 165.635641 48.998746 
L 166.188383 48.943255 
L 166.741125 49.016082 
L 168.952094 48.548945 
L 169.504836 48.178029 
L 172.268547 48.112381 
L 174.479515 46.620163 
L 175.032257 46.400335 
L 179.454194 45.659229 
L 180.559679 45.833701 
L 181.665163 46.254603 
L 183.323389 46.09642 
L 183.876132 46.124538 
L 184.428874 46.382506 
L 186.0871 48.083938 
L 186.639842 48.289981 
L 187.192584 48.338311 
L 188.850811 47.782055 
L 190.509037 47.809875 
L 191.061779 47.606626 
L 191.614522 47.219983 
L 193.272748 45.331477 
L 193.82549 44.901601 
L 194.378232 44.730958 
L 196.036459 45.419564 
L 197.141943 45.923126 
L 198.247427 46.137364 
L 198.80017 46.264186 
L 199.352912 46.27656 
L 199.905654 46.158424 
L 200.458396 45.780592 
L 202.669365 43.375988 
L 203.222107 43.075751 
L 204.327591 42.983734 
L 205.433075 43.63237 
L 206.53856 44.362597 
L 207.091302 44.627941 
L 208.196786 44.510769 
L 209.855012 43.830743 
L 210.407755 43.683107 
L 211.513239 43.042008 
L 213.171465 41.029857 
L 213.724207 40.58309 
L 214.27695 40.390803 
L 215.382434 41.088446 
L 217.593402 43.505556 
L 218.146145 44.030259 
L 218.698887 44.241566 
L 219.251629 44.263243 
L 219.804371 44.135327 
L 220.909855 43.135961 
L 222.01534 42.310243 
L 222.568082 42.139131 
L 223.120824 42.171202 
L 223.673566 42.058335 
L 224.77905 41.410371 
L 226.437277 39.714003 
L 226.990019 39.483796 
L 228.095503 39.463632 
L 229.75373 39.634621 
L 230.859214 38.889612 
L 231.411956 38.414294 
L 232.51744 36.776306 
L 233.070182 36.241235 
L 234.175667 35.713558 
L 234.728409 35.956233 
L 235.833893 37.209344 
L 236.939377 38.449494 
L 237.49212 38.816059 
L 238.044862 38.864078 
L 239.150346 38.519805 
L 239.703088 38.416601 
L 240.25583 38.56434 
L 241.914057 39.522243 
L 242.466799 39.704186 
L 243.019541 39.598027 
L 245.783252 37.457719 
L 246.888736 37.247546 
L 247.99422 36.786667 
L 248.546962 36.384826 
L 250.205189 34.381244 
L 250.757931 33.921173 
L 251.310673 33.702717 
L 251.863415 33.758838 
L 252.416157 34.02211 
L 254.074384 35.371654 
L 254.627126 35.608764 
L 255.179868 35.700838 
L 255.73261 35.528658 
L 256.285352 37.752583 
L 256.838095 40.750372 
L 257.390837 44.684791 
L 257.943579 47.010307 
L 258.496321 51.041504 
L 258.496321 51.041504 
" clip-path="url(#p41d6168113)" style="fill: none; stroke: #1f77b4; stroke-width: 1.5; stroke-linecap: square"/>
   </g>
   <g id="line2d_20">
    <path d="M 37.952206 152.781483 
L 39.05769 152.277007 
L 40.163174 151.064249 
L 41.268659 149.36046 
L 42.926885 146.227435 
L 44.585111 143.168772 
L 46.243338 140.049496 
L 47.348822 137.872309 
L 48.454306 136.271082 
L 49.559791 135.417561 
L 50.665275 134.754205 
L 53.428986 133.385708 
L 54.53447 132.516198 
L 57.298181 129.719065 
L 58.956407 128.771282 
L 59.509149 128.102193 
L 60.061891 127.070865 
L 61.167376 124.09404 
L 63.931087 115.510016 
L 65.036571 113.060865 
L 65.589313 112.100092 
L 66.694797 111.037616 
L 67.247539 110.096577 
L 68.905766 105.911567 
L 69.458508 104.460355 
L 70.01125 103.489551 
L 70.563992 103.254392 
L 71.116734 103.31883 
L 71.669477 103.550662 
L 72.222219 104.133767 
L 72.774961 104.911349 
L 73.327703 105.254384 
L 73.880445 105.420449 
L 74.433187 105.280066 
L 74.985929 104.656624 
L 77.74964 98.611976 
L 79.960609 96.057837 
L 82.724319 91.908263 
L 83.829804 90.680598 
L 84.382546 90.169594 
L 84.935288 89.920189 
L 87.146257 89.344037 
L 87.698999 89.043749 
L 88.251741 88.496859 
L 90.462709 84.919325 
L 91.568194 83.139517 
L 93.22642 80.901079 
L 94.884647 79.585547 
L 95.437389 78.917013 
L 96.542873 77.018587 
L 97.648357 74.909176 
L 98.201099 74.319763 
L 99.859326 73.311664 
L 100.96481 73.570198 
L 101.517552 73.946333 
L 102.070294 74.619781 
L 102.623037 75.534046 
L 103.175779 75.89587 
L 103.728521 75.972667 
L 104.834005 75.610956 
L 105.386747 75.50541 
L 106.492232 75.611631 
L 107.044974 75.342511 
L 107.597716 74.533579 
L 109.255942 70.948267 
L 109.808684 70.180984 
L 111.466911 68.906522 
L 113.677879 65.895381 
L 114.230622 65.497609 
L 114.783364 65.295479 
L 115.888848 65.230578 
L 116.994332 65.655297 
L 117.547074 66.093559 
L 118.099817 66.216352 
L 118.652559 65.864612 
L 119.758043 64.331807 
L 120.310785 63.30664 
L 120.863527 62.706369 
L 121.416269 62.573396 
L 121.969012 62.635478 
L 123.074496 62.399352 
L 125.285464 61.0619 
L 126.390949 60.682925 
L 126.943691 60.258095 
L 129.707402 57.354371 
L 130.260144 57.139133 
L 131.365628 57.149697 
L 132.471112 57.203313 
L 133.576597 56.793788 
L 134.129339 56.584922 
L 134.682081 56.513104 
L 135.234823 56.70822 
L 136.340307 57.633618 
L 136.893049 57.859277 
L 137.445792 57.569344 
L 137.998534 56.588813 
L 139.104018 52.894189 
L 140.209502 49.393 
L 140.762244 48.543814 
L 141.314987 48.591824 
L 141.867729 49.15691 
L 142.420471 49.988236 
L 143.525955 51.949346 
L 144.078697 52.566581 
L 144.631439 52.946253 
L 145.184182 53.14112 
L 145.736924 53.058583 
L 146.289666 52.69169 
L 146.842408 51.79346 
L 147.39515 50.326352 
L 147.947892 48.513336 
L 149.053377 44.083747 
L 149.606119 42.432297 
L 150.158861 41.738639 
L 150.711603 41.809072 
L 151.264345 42.784262 
L 153.475314 48.484058 
L 154.028056 49.128163 
L 154.580798 49.465592 
L 155.13354 49.505226 
L 155.686282 49.306065 
L 156.239024 48.93441 
L 156.791767 48.213273 
L 157.897251 46.05716 
L 158.449993 44.902264 
L 159.002735 44.264568 
L 159.555477 44.178458 
L 160.108219 44.542458 
L 161.766446 46.376797 
L 162.319188 46.54779 
L 162.87193 46.549043 
L 163.977414 46.043945 
L 165.082899 45.687227 
L 165.635641 45.372079 
L 166.741125 45.067416 
L 168.399352 43.33408 
L 169.504836 41.46972 
L 170.61032 41.042674 
L 172.268547 40.627982 
L 173.374031 38.905158 
L 173.926773 38.220798 
L 174.479515 37.849958 
L 175.584999 37.815557 
L 176.137742 37.862125 
L 176.690484 37.651474 
L 178.34871 36.554379 
L 178.901452 36.533364 
L 180.006937 37.500131 
L 181.112421 38.692116 
L 181.665163 38.991261 
L 182.217905 38.774912 
L 182.770647 38.426746 
L 183.323389 38.377967 
L 184.428874 38.128812 
L 184.981616 38.557066 
L 185.534358 39.169058 
L 187.745327 39.964505 
L 188.850811 40.067935 
L 189.403553 40.253726 
L 189.956295 40.020217 
L 190.509037 39.600404 
L 191.614522 38.464808 
L 192.167264 37.738195 
L 192.720006 37.616081 
L 193.82549 38.344764 
L 194.930974 39.624301 
L 195.483717 39.859627 
L 196.036459 39.600969 
L 196.589201 39.649137 
L 197.141943 39.559505 
L 197.694685 39.682716 
L 198.247427 39.985305 
L 198.80017 40.523299 
L 199.352912 40.699635 
L 199.905654 40.587852 
L 200.458396 39.789129 
L 202.669365 34.57894 
L 203.222107 33.975261 
L 203.774849 34.012474 
L 204.327591 34.420927 
L 204.880333 35.540417 
L 205.985817 38.242917 
L 206.53856 39.141979 
L 207.091302 39.359699 
L 207.644044 38.773344 
L 208.749528 37.102087 
L 209.30227 36.54013 
L 209.855012 36.463359 
L 210.960497 37.602255 
L 211.513239 38.183105 
L 212.065981 38.326546 
L 212.618723 38.183486 
L 213.171465 37.78092 
L 214.27695 36.796654 
L 215.382434 36.846735 
L 216.487918 37.155825 
L 217.04066 37.198529 
L 217.593402 37.493557 
L 219.804371 40.732281 
L 220.357113 41.077256 
L 221.462597 40.64239 
L 222.568082 39.761586 
L 223.120824 39.243142 
L 224.226308 37.434605 
L 225.331792 35.039295 
L 225.884535 33.774605 
L 226.437277 32.9797 
L 226.990019 32.487683 
L 227.542761 32.256125 
L 228.095503 32.24686 
L 228.648245 32.577529 
L 230.306472 34.391517 
L 231.411956 35.973699 
L 231.964698 36.1723 
L 232.51744 36.213212 
L 233.070182 36.52343 
L 233.622925 36.362035 
L 234.175667 36.060704 
L 234.728409 36.374641 
L 235.833893 38.243668 
L 236.939377 41.796848 
L 237.49212 42.96566 
L 238.044862 43.171608 
L 238.597604 42.961989 
L 239.703088 41.105877 
L 240.25583 40.658332 
L 240.808572 40.869937 
L 242.466799 42.175762 
L 243.019541 42.276914 
L 243.572283 41.733895 
L 245.23051 39.16914 
L 245.783252 38.068828 
L 246.888736 36.888878 
L 247.441478 36.015955 
L 247.99422 35.352745 
L 248.546962 34.987205 
L 249.099705 34.469607 
L 249.652447 34.227512 
L 250.205189 34.635657 
L 250.757931 35.33901 
L 251.310673 36.22735 
L 253.521642 41.278583 
L 254.074384 41.591293 
L 254.627126 41.290957 
L 255.179868 40.4329 
L 255.73261 39.01641 
L 256.285352 40.010985 
L 256.838095 41.988534 
L 257.390837 45.053482 
L 257.943579 46.949221 
L 258.496321 50.762704 
L 258.496321 50.762704 
" clip-path="url(#p41d6168113)" style="fill: none; stroke: #1f77b4; stroke-opacity: 0.2; stroke-width: 1.5; stroke-linecap: square"/>
   </g>
   <g id="line2d_21">
    <path d="M 37.952206 152.82358 
L 39.05769 152.22042 
L 39.610432 151.576751 
L 40.715916 149.754487 
L 44.585111 142.662661 
L 46.243338 140.004359 
L 48.454306 136.95321 
L 49.559791 136.08463 
L 51.218017 135.221636 
L 51.770759 134.849891 
L 52.876244 133.774153 
L 53.981728 132.418158 
L 55.087212 130.841259 
L 55.639954 130.182475 
L 56.192696 129.698919 
L 56.745439 129.396329 
L 57.850923 129.242806 
L 60.614634 129.192234 
L 61.167376 129.06943 
L 61.720118 128.828005 
L 62.27286 128.451896 
L 62.825602 127.774655 
L 63.378344 126.879368 
L 64.483829 124.224175 
L 66.142055 119.969853 
L 67.247539 117.225 
L 68.353024 113.197842 
L 71.116734 101.301857 
L 71.669477 99.692569 
L 72.222219 98.478105 
L 73.327703 96.97399 
L 75.538672 93.623505 
L 76.091414 93.000585 
L 76.644156 92.622604 
L 78.302382 90.637924 
L 78.855124 89.306437 
L 81.066093 82.463241 
L 81.618835 81.392196 
L 82.724319 80.286297 
L 83.829804 80.155413 
L 86.040772 79.98622 
L 88.804483 79.714277 
L 89.909967 79.219104 
L 91.015452 78.612722 
L 92.120936 78.383609 
L 94.331904 78.710614 
L 94.884647 78.804908 
L 96.542873 78.569105 
L 97.648357 78.128964 
L 100.412068 77.083395 
L 101.517552 76.180318 
L 102.623037 75.274643 
L 103.175779 75.122326 
L 103.728521 75.190278 
L 105.386747 76.05348 
L 105.939489 76.148568 
L 106.492232 76.098031 
L 109.808684 74.724811 
L 110.361427 74.224426 
L 110.914169 73.504984 
L 113.677879 69.138853 
L 114.230622 68.57151 
L 114.783364 68.256685 
L 116.44159 67.848498 
L 116.994332 67.28606 
L 117.547074 66.264543 
L 119.205301 61.67787 
L 119.758043 60.587683 
L 120.310785 59.958914 
L 120.863527 59.752777 
L 122.521754 59.714554 
L 124.17998 58.99294 
L 127.496433 57.558931 
L 128.601917 57.166197 
L 129.707402 57.004593 
L 131.91837 57.342529 
L 133.023854 57.451881 
L 134.129339 57.339095 
L 135.787565 56.818621 
L 136.893049 56.523133 
L 137.445792 56.491316 
L 138.551276 56.764611 
L 139.65676 57.132172 
L 140.762244 57.210143 
L 142.973213 56.961836 
L 146.289666 56.884203 
L 148.500634 56.64232 
L 150.158861 56.475703 
L 156.791767 56.22105 
L 159.555477 55.475728 
L 160.660962 55.466196 
L 162.87193 55.841575 
L 164.530157 56.00648 
L 168.399352 55.951674 
L 170.057578 56.158574 
L 171.715804 55.975336 
L 173.374031 55.818885 
L 175.584999 55.858696 
L 178.901452 55.33754 
L 181.665163 55.535687 
L 182.770647 55.311103 
L 184.428874 54.874964 
L 185.534358 54.795241 
L 189.956295 54.994334 
L 194.378232 55.10443 
L 197.141943 55.238555 
L 198.80017 55.489082 
L 201.56388 56.140283 
L 203.222107 55.974578 
L 209.855012 54.905907 
L 210.960497 54.129607 
L 213.724207 51.276663 
L 214.27695 51.033263 
L 214.829692 51.055173 
L 215.382434 51.351814 
L 216.487918 52.325693 
L 217.04066 52.668938 
L 217.593402 52.765587 
L 218.146145 52.564949 
L 218.698887 52.054725 
L 219.251629 51.264181 
L 220.357113 48.878912 
L 221.462597 46.60506 
L 222.01534 46.049991 
L 222.568082 46.048474 
L 224.226308 46.938493 
L 224.77905 46.823959 
L 225.884535 46.040185 
L 228.648245 43.721265 
L 230.306472 42.416725 
L 230.859214 41.673149 
L 233.070182 37.981403 
L 233.622925 37.836802 
L 235.833893 39.004862 
L 236.386635 38.810194 
L 237.49212 38.045951 
L 238.044862 38.074975 
L 238.597604 38.228491 
L 239.150346 38.709365 
L 240.808572 41.02176 
L 241.361315 41.498513 
L 241.914057 41.598091 
L 242.466799 41.312343 
L 243.019541 40.54698 
L 245.23051 35.931018 
L 245.783252 35.506849 
L 246.335994 35.716144 
L 247.99422 37.418233 
L 248.546962 37.063488 
L 249.099705 36.034631 
L 250.757931 31.667068 
L 251.863415 30.20174 
L 252.9689 29.238795 
L 253.521642 28.78088 
L 254.074384 28.53267 
L 254.627126 28.755375 
L 255.179868 29.345645 
L 255.73261 30.235454 
L 256.838095 37.675949 
L 257.390837 42.409123 
L 257.943579 45.184779 
L 258.496321 49.451221 
L 258.496321 49.451221 
" clip-path="url(#p41d6168113)" style="fill: none; stroke: #1f77b4; stroke-opacity: 0.2; stroke-width: 1.5; stroke-linecap: square"/>
   </g>
   <g id="line2d_22">
    <path d="M 37.952206 152.642764 
L 39.05769 152.053238 
L 40.163174 150.71458 
L 41.821401 147.968981 
L 43.479627 144.941416 
L 47.348822 137.895136 
L 48.454306 136.804972 
L 50.112533 135.603523 
L 51.218017 134.398125 
L 52.876244 131.967784 
L 53.981728 130.492248 
L 55.639954 129.043846 
L 56.745439 128.214623 
L 57.850923 126.759325 
L 58.403665 125.92304 
L 58.956407 124.538922 
L 61.167376 117.522685 
L 61.720118 116.502775 
L 62.27286 115.898079 
L 62.825602 115.566655 
L 63.931087 115.756429 
L 64.483829 115.501083 
L 65.036571 114.775757 
L 65.589313 113.442988 
L 66.142055 111.167649 
L 68.353024 99.923585 
L 68.905766 98.441538 
L 69.458508 97.541247 
L 70.01125 97.302494 
L 70.563992 97.737062 
L 71.669477 98.986829 
L 72.222219 99.511347 
L 72.774961 99.822038 
L 73.327703 99.64788 
L 74.433187 98.735462 
L 76.091414 97.175795 
L 76.644156 96.435612 
L 77.196898 95.276498 
L 77.74964 93.819533 
L 79.960609 86.680392 
L 80.513351 85.627672 
L 81.066093 85.010375 
L 81.618835 84.73202 
L 83.277062 84.402172 
L 84.935288 83.834395 
L 88.251741 82.129612 
L 89.357225 81.311698 
L 91.015452 80.338443 
L 92.673678 79.963548 
L 97.095615 79.849276 
L 99.859326 79.704483 
L 100.96481 79.250919 
L 102.070294 78.753282 
L 102.623037 78.772732 
L 104.834005 79.484743 
L 105.386747 79.287589 
L 105.939489 78.849452 
L 106.492232 78.232002 
L 107.044974 77.393199 
L 108.150458 74.71059 
L 109.808684 69.648303 
L 110.361427 68.444909 
L 110.914169 67.666735 
L 112.019653 66.875397 
L 113.125137 66.294999 
L 114.230622 65.278776 
L 115.336106 64.790637 
L 115.888848 64.69366 
L 117.547074 65.408113 
L 118.099817 65.47456 
L 118.652559 65.178587 
L 120.310785 63.450023 
L 120.863527 63.240538 
L 121.416269 63.613378 
L 123.074496 65.192019 
L 123.627238 65.393708 
L 124.732722 64.96839 
L 125.838207 64.531557 
L 126.390949 64.475614 
L 126.943691 64.579631 
L 128.601917 65.274443 
L 129.707402 65.457328 
L 130.812886 65.16349 
L 131.91837 64.499883 
L 132.471112 63.75049 
L 134.682081 59.887699 
L 135.234823 59.921853 
L 135.787565 60.542799 
L 136.893049 62.843636 
L 137.445792 64.061767 
L 137.998534 64.877493 
L 138.551276 65.308002 
L 139.104018 65.312776 
L 140.209502 64.968054 
L 140.762244 64.634198 
L 141.314987 64.130254 
L 141.867729 63.240672 
L 142.420471 61.802995 
L 142.973213 59.814084 
L 144.631439 52.563431 
L 145.184182 50.895554 
L 145.736924 49.638756 
L 146.289666 48.872608 
L 146.842408 48.622347 
L 147.947892 48.494538 
L 149.053377 48.862435 
L 149.606119 48.771159 
L 150.711603 48.070717 
L 152.369829 46.504401 
L 154.028056 45.136429 
L 155.13354 43.69177 
L 155.686282 43.33517 
L 156.239024 43.468222 
L 156.791767 43.957126 
L 158.449993 46.84095 
L 159.002735 47.195987 
L 159.555477 47.246352 
L 160.108219 47.044948 
L 160.660962 47.102903 
L 162.87193 48.610691 
L 163.424672 48.309052 
L 164.530157 46.857868 
L 165.082899 46.35762 
L 165.635641 45.674347 
L 166.188383 45.680646 
L 167.293867 46.454303 
L 168.399352 47.107069 
L 168.952094 47.122014 
L 169.504836 46.937642 
L 171.163062 47.228351 
L 172.268547 47.823037 
L 173.374031 47.369157 
L 174.479515 46.154389 
L 175.032257 45.540426 
L 175.584999 45.227093 
L 176.137742 45.117186 
L 178.34871 45.411891 
L 179.454194 44.621869 
L 180.559679 43.89279 
L 182.770647 44.491288 
L 183.323389 44.756557 
L 183.876132 45.166791 
L 184.428874 46.143744 
L 185.534358 49.006468 
L 186.0871 50.040323 
L 186.639842 50.451973 
L 187.192584 50.167583 
L 188.298069 48.685949 
L 188.850811 48.281109 
L 189.403553 48.223849 
L 190.509037 48.808724 
L 191.061779 48.727464 
L 191.614522 48.096047 
L 192.167264 46.838096 
L 193.82549 41.245308 
L 194.378232 40.177057 
L 194.930974 40.095936 
L 195.483717 40.654992 
L 196.589201 42.343247 
L 197.141943 42.971317 
L 198.247427 43.053876 
L 199.352912 42.49092 
L 200.458396 41.578912 
L 201.56388 40.468432 
L 202.116622 39.867552 
L 202.669365 39.497306 
L 203.774849 39.083089 
L 204.327591 38.717274 
L 205.433075 38.226029 
L 206.53856 38.452721 
L 208.196786 40.387504 
L 209.30227 40.574709 
L 209.855012 40.122961 
L 210.407755 39.503444 
L 211.513239 37.391914 
L 212.065981 35.80211 
L 213.171465 33.593401 
L 213.724207 33.249197 
L 214.27695 33.342491 
L 215.382434 35.066788 
L 216.487918 37.657225 
L 217.593402 40.257524 
L 218.146145 41.22099 
L 218.698887 41.712495 
L 219.251629 41.69964 
L 219.804371 41.525991 
L 220.357113 41.149232 
L 221.462597 40.723066 
L 222.568082 40.607333 
L 223.120824 40.883003 
L 224.77905 41.067429 
L 225.331792 40.971987 
L 225.884535 40.675268 
L 226.437277 40.611412 
L 226.990019 40.87192 
L 228.095503 41.952303 
L 229.200987 42.50187 
L 229.75373 42.151387 
L 230.306472 41.11413 
L 231.964698 36.982683 
L 233.070182 34.218873 
L 234.175667 32.959543 
L 234.728409 32.967073 
L 235.281151 33.470193 
L 235.833893 34.379503 
L 237.49212 35.436567 
L 238.044862 35.345653 
L 238.597604 34.803237 
L 240.25583 34.694934 
L 241.914057 35.314161 
L 243.019541 35.970186 
L 243.572283 36.423264 
L 244.677767 37.993351 
L 245.23051 38.499739 
L 245.783252 38.79748 
L 246.335994 38.895149 
L 246.888736 38.552625 
L 249.099705 36.624843 
L 249.652447 36.178763 
L 250.205189 35.589142 
L 251.310673 34.034032 
L 251.863415 33.517043 
L 252.416157 33.402201 
L 252.9689 33.993201 
L 254.074384 35.990998 
L 254.627126 36.779961 
L 255.179868 37.323968 
L 255.73261 37.334109 
L 256.285352 39.566391 
L 256.838095 42.586633 
L 257.390837 46.591767 
L 257.943579 48.896922 
L 258.496321 52.910586 
L 258.496321 52.910586 
" clip-path="url(#p41d6168113)" style="fill: none; stroke: #1f77b4; stroke-opacity: 0.2; stroke-width: 1.5; stroke-linecap: square"/>
   </g>
   <g id="patch_4">
    <path d="M 26.925 159.038125 
L 26.925 22.318125 
" style="fill: none; stroke: #000000; stroke-width: 0.8; stroke-linejoin: miter; stroke-linecap: square"/>
   </g>
   <g id="patch_5">
    <path d="M 269.523527 159.038125 
L 269.523527 22.318125 
" style="fill: none; stroke: #000000; stroke-width: 0.8; stroke-linejoin: miter; stroke-linecap: square"/>
   </g>
   <g id="patch_6">
    <path d="M 26.925 159.038125 
L 269.523527 159.038125 
" style="fill: none; stroke: #000000; stroke-width: 0.8; stroke-linejoin: miter; stroke-linecap: square"/>
   </g>
   <g id="patch_7">
    <path d="M 26.925 22.318125 
L 269.523527 22.318125 
" style="fill: none; stroke: #000000; stroke-width: 0.8; stroke-linejoin: miter; stroke-linecap: square"/>
   </g>
   <g id="text_11">
    <!-- Median human normalized score -->
    <g transform="translate(50.291138 16.318125)scale(0.12 -0.12)">
     <defs>
      <path id="DejaVuSans-64" d="M 2906 2969 
L 2906 4863 
L 3481 4863 
L 3481 0 
L 2906 0 
L 2906 525 
Q 2725 213 2448 61 
Q 2172 -91 1784 -91 
Q 1150 -91 751 415 
Q 353 922 353 1747 
Q 353 2572 751 3078 
Q 1150 3584 1784 3584 
Q 2172 3584 2448 3432 
Q 2725 3281 2906 2969 
z
M 947 1747 
Q 947 1113 1208 752 
Q 1469 391 1925 391 
Q 2381 391 2643 752 
Q 2906 1113 2906 1747 
Q 2906 2381 2643 2742 
Q 2381 3103 1925 3103 
Q 1469 3103 1208 2742 
Q 947 2381 947 1747 
z
" transform="scale(0.015625)"/>
      <path id="DejaVuSans-61" d="M 2194 1759 
Q 1497 1759 1228 1600 
Q 959 1441 959 1056 
Q 959 750 1161 570 
Q 1363 391 1709 391 
Q 2188 391 2477 730 
Q 2766 1069 2766 1631 
L 2766 1759 
L 2194 1759 
z
M 3341 1997 
L 3341 0 
L 2766 0 
L 2766 531 
Q 2569 213 2275 61 
Q 1981 -91 1556 -91 
Q 1019 -91 701 211 
Q 384 513 384 1019 
Q 384 1609 779 1909 
Q 1175 2209 1959 2209 
L 2766 2209 
L 2766 2266 
Q 2766 2663 2505 2880 
Q 2244 3097 1772 3097 
Q 1472 3097 1187 3025 
Q 903 2953 641 2809 
L 641 3341 
Q 956 3463 1253 3523 
Q 1550 3584 1831 3584 
Q 2591 3584 2966 3190 
Q 3341 2797 3341 1997 
z
" transform="scale(0.015625)"/>
      <path id="DejaVuSans-20" transform="scale(0.015625)"/>
      <path id="DejaVuSans-68" d="M 3513 2113 
L 3513 0 
L 2938 0 
L 2938 2094 
Q 2938 2591 2744 2837 
Q 2550 3084 2163 3084 
Q 1697 3084 1428 2787 
Q 1159 2491 1159 1978 
L 1159 0 
L 581 0 
L 581 4863 
L 1159 4863 
L 1159 2956 
Q 1366 3272 1645 3428 
Q 1925 3584 2291 3584 
Q 2894 3584 3203 3211 
Q 3513 2838 3513 2113 
z
" transform="scale(0.015625)"/>
      <path id="DejaVuSans-6d" d="M 3328 2828 
Q 3544 3216 3844 3400 
Q 4144 3584 4550 3584 
Q 5097 3584 5394 3201 
Q 5691 2819 5691 2113 
L 5691 0 
L 5113 0 
L 5113 2094 
Q 5113 2597 4934 2840 
Q 4756 3084 4391 3084 
Q 3944 3084 3684 2787 
Q 3425 2491 3425 1978 
L 3425 0 
L 2847 0 
L 2847 2094 
Q 2847 2600 2669 2842 
Q 2491 3084 2119 3084 
Q 1678 3084 1418 2786 
Q 1159 2488 1159 1978 
L 1159 0 
L 581 0 
L 581 3500 
L 1159 3500 
L 1159 2956 
Q 1356 3278 1631 3431 
Q 1906 3584 2284 3584 
Q 2666 3584 2933 3390 
Q 3200 3197 3328 2828 
z
" transform="scale(0.015625)"/>
      <path id="DejaVuSans-6f" d="M 1959 3097 
Q 1497 3097 1228 2736 
Q 959 2375 959 1747 
Q 959 1119 1226 758 
Q 1494 397 1959 397 
Q 2419 397 2687 759 
Q 2956 1122 2956 1747 
Q 2956 2369 2687 2733 
Q 2419 3097 1959 3097 
z
M 1959 3584 
Q 2709 3584 3137 3096 
Q 3566 2609 3566 1747 
Q 3566 888 3137 398 
Q 2709 -91 1959 -91 
Q 1206 -91 779 398 
Q 353 888 353 1747 
Q 353 2609 779 3096 
Q 1206 3584 1959 3584 
z
" transform="scale(0.015625)"/>
      <path id="DejaVuSans-72" d="M 2631 2963 
Q 2534 3019 2420 3045 
Q 2306 3072 2169 3072 
Q 1681 3072 1420 2755 
Q 1159 2438 1159 1844 
L 1159 0 
L 581 0 
L 581 3500 
L 1159 3500 
L 1159 2956 
Q 1341 3275 1631 3429 
Q 1922 3584 2338 3584 
Q 2397 3584 2469 3576 
Q 2541 3569 2628 3553 
L 2631 2963 
z
" transform="scale(0.015625)"/>
      <path id="DejaVuSans-6c" d="M 603 4863 
L 1178 4863 
L 1178 0 
L 603 0 
L 603 4863 
z
" transform="scale(0.015625)"/>
      <path id="DejaVuSans-7a" d="M 353 3500 
L 3084 3500 
L 3084 2975 
L 922 459 
L 3084 459 
L 3084 0 
L 275 0 
L 275 525 
L 2438 3041 
L 353 3041 
L 353 3500 
z
" transform="scale(0.015625)"/>
      <path id="DejaVuSans-63" d="M 3122 3366 
L 3122 2828 
Q 2878 2963 2633 3030 
Q 2388 3097 2138 3097 
Q 1578 3097 1268 2742 
Q 959 2388 959 1747 
Q 959 1106 1268 751 
Q 1578 397 2138 397 
Q 2388 397 2633 464 
Q 2878 531 3122 666 
L 3122 134 
Q 2881 22 2623 -34 
Q 2366 -91 2075 -91 
Q 1284 -91 818 406 
Q 353 903 353 1747 
Q 353 2603 823 3093 
Q 1294 3584 2113 3584 
Q 2378 3584 2631 3529 
Q 2884 3475 3122 3366 
z
" transform="scale(0.015625)"/>
     </defs>
     <use xlink:href="#DejaVuSans-4d"/>
     <use xlink:href="#DejaVuSans-65" x="86.279297"/>
     <use xlink:href="#DejaVuSans-64" x="147.802734"/>
     <use xlink:href="#DejaVuSans-69" x="211.279297"/>
     <use xlink:href="#DejaVuSans-61" x="239.0625"/>
     <use xlink:href="#DejaVuSans-6e" x="300.341797"/>
     <use xlink:href="#DejaVuSans-20" x="363.720703"/>
     <use xlink:href="#DejaVuSans-68" x="395.507812"/>
     <use xlink:href="#DejaVuSans-75" x="458.886719"/>
     <use xlink:href="#DejaVuSans-6d" x="522.265625"/>
     <use xlink:href="#DejaVuSans-61" x="619.677734"/>
     <use xlink:href="#DejaVuSans-6e" x="680.957031"/>
     <use xlink:href="#DejaVuSans-20" x="744.335938"/>
     <use xlink:href="#DejaVuSans-6e" x="776.123047"/>
     <use xlink:href="#DejaVuSans-6f" x="839.501953"/>
     <use xlink:href="#DejaVuSans-72" x="900.683594"/>
     <use xlink:href="#DejaVuSans-6d" x="940.046875"/>
     <use xlink:href="#DejaVuSans-61" x="1037.458984"/>
     <use xlink:href="#DejaVuSans-6c" x="1098.738281"/>
     <use xlink:href="#DejaVuSans-69" x="1126.521484"/>
     <use xlink:href="#DejaVuSans-7a" x="1154.304688"/>
     <use xlink:href="#DejaVuSans-65" x="1206.794922"/>
     <use xlink:href="#DejaVuSans-64" x="1268.318359"/>
     <use xlink:href="#DejaVuSans-20" x="1331.794922"/>
     <use xlink:href="#DejaVuSans-73" x="1363.582031"/>
     <use xlink:href="#DejaVuSans-63" x="1415.681641"/>
     <use xlink:href="#DejaVuSans-6f" x="1470.662109"/>
     <use xlink:href="#DejaVuSans-72" x="1531.84375"/>
     <use xlink:href="#DejaVuSans-65" x="1570.707031"/>
    </g>
   </g>
  </g>
  <g id="axes_2">
   <g id="patch_8">
    <path d="M 309.5475 159.038125 
L 552.146027 159.038125 
L 552.146027 22.318125 
L 309.5475 22.318125 
z
" style="fill: #ffffff"/>
   </g>
   <g id="patch_9">
    <path d="M 320.574556 153.34681 
L 326.088162 153.34681 
L 326.088162 133.149302 
L 320.574556 133.149302 
L 320.574556 153.34681 
z
" clip-path="url(#pa0f9e4ffa6)" style="fill: none; stroke: #808080; stroke-linejoin: miter"/>
   </g>
   <g id="matplotlib.axis_3">
    <g id="xtick_7">
     <g id="line2d_23">
      <path d="M 320.574556 159.038125 
L 320.574556 22.318125 
" clip-path="url(#pa0f9e4ffa6)" style="fill: none; stroke: #b0b0b0; stroke-opacity: 0.5; stroke-width: 0.8; stroke-linecap: square"/>
     </g>
     <g id="line2d_24">
      <g>
       <use xlink:href="#m73ef637df3" x="320.574556" y="159.038125" style="stroke: #000000; stroke-width: 0.8"/>
      </g>
     </g>
     <g id="text_12">
      <!-- 0K -->
      <g transform="translate(314.1144 173.636562)scale(0.1 -0.1)">
       <use xlink:href="#DejaVuSans-30"/>
       <use xlink:href="#DejaVuSans-4b" x="63.623047"/>
      </g>
     </g>
    </g>
    <g id="xtick_8">
     <g id="line2d_25">
      <path d="M 366.521278 159.038125 
L 366.521278 22.318125 
" clip-path="url(#pa0f9e4ffa6)" style="fill: none; stroke: #b0b0b0; stroke-opacity: 0.5; stroke-width: 0.8; stroke-linecap: square"/>
     </g>
     <g id="line2d_26">
      <g>
       <use xlink:href="#m73ef637df3" x="366.521278" y="159.038125" style="stroke: #000000; stroke-width: 0.8"/>
      </g>
     </g>
     <g id="text_13">
      <!-- 0.5K -->
      <g transform="translate(355.290809 173.636562)scale(0.1 -0.1)">
       <use xlink:href="#DejaVuSans-30"/>
       <use xlink:href="#DejaVuSans-2e" x="63.623047"/>
       <use xlink:href="#DejaVuSans-35" x="95.410156"/>
       <use xlink:href="#DejaVuSans-4b" x="159.033203"/>
      </g>
     </g>
    </g>
    <g id="xtick_9">
     <g id="line2d_27">
      <path d="M 412.468 159.038125 
L 412.468 22.318125 
" clip-path="url(#pa0f9e4ffa6)" style="fill: none; stroke: #b0b0b0; stroke-opacity: 0.5; stroke-width: 0.8; stroke-linecap: square"/>
     </g>
     <g id="line2d_28">
      <g>
       <use xlink:href="#m73ef637df3" x="412.468" y="159.038125" style="stroke: #000000; stroke-width: 0.8"/>
      </g>
     </g>
     <g id="text_14">
      <!-- 1K -->
      <g transform="translate(406.007843 173.636562)scale(0.1 -0.1)">
       <use xlink:href="#DejaVuSans-31"/>
       <use xlink:href="#DejaVuSans-4b" x="63.623047"/>
      </g>
     </g>
    </g>
    <g id="xtick_10">
     <g id="line2d_29">
      <path d="M 458.414722 159.038125 
L 458.414722 22.318125 
" clip-path="url(#pa0f9e4ffa6)" style="fill: none; stroke: #b0b0b0; stroke-opacity: 0.5; stroke-width: 0.8; stroke-linecap: square"/>
     </g>
     <g id="line2d_30">
      <g>
       <use xlink:href="#m73ef637df3" x="458.414722" y="159.038125" style="stroke: #000000; stroke-width: 0.8"/>
      </g>
     </g>
     <g id="text_15">
      <!-- 1.5K -->
      <g transform="translate(447.184253 173.636562)scale(0.1 -0.1)">
       <use xlink:href="#DejaVuSans-31"/>
       <use xlink:href="#DejaVuSans-2e" x="63.623047"/>
       <use xlink:href="#DejaVuSans-35" x="95.410156"/>
       <use xlink:href="#DejaVuSans-4b" x="159.033203"/>
      </g>
     </g>
    </g>
    <g id="xtick_11">
     <g id="line2d_31">
      <path d="M 504.361443 159.038125 
L 504.361443 22.318125 
" clip-path="url(#pa0f9e4ffa6)" style="fill: none; stroke: #b0b0b0; stroke-opacity: 0.5; stroke-width: 0.8; stroke-linecap: square"/>
     </g>
     <g id="line2d_32">
      <g>
       <use xlink:href="#m73ef637df3" x="504.361443" y="159.038125" style="stroke: #000000; stroke-width: 0.8"/>
      </g>
     </g>
     <g id="text_16">
      <!-- 2K -->
      <g transform="translate(497.901287 173.636562)scale(0.1 -0.1)">
       <use xlink:href="#DejaVuSans-32"/>
       <use xlink:href="#DejaVuSans-4b" x="63.623047"/>
      </g>
     </g>
    </g>
    <g id="xtick_12">
     <g id="line2d_33">
      <path d="M 550.308165 159.038125 
L 550.308165 22.318125 
" clip-path="url(#pa0f9e4ffa6)" style="fill: none; stroke: #b0b0b0; stroke-opacity: 0.5; stroke-width: 0.8; stroke-linecap: square"/>
     </g>
     <g id="line2d_34">
      <g>
       <use xlink:href="#m73ef637df3" x="550.308165" y="159.038125" style="stroke: #000000; stroke-width: 0.8"/>
      </g>
     </g>
     <g id="text_17">
      <!-- 2.5K -->
      <g transform="translate(539.077697 173.636562)scale(0.1 -0.1)">
       <use xlink:href="#DejaVuSans-32"/>
       <use xlink:href="#DejaVuSans-2e" x="63.623047"/>
       <use xlink:href="#DejaVuSans-35" x="95.410156"/>
       <use xlink:href="#DejaVuSans-4b" x="159.033203"/>
      </g>
     </g>
    </g>
    <g id="text_18">
     <!-- Minutes -->
     <g transform="translate(411.164732 187.314687)scale(0.1 -0.1)">
      <use xlink:href="#DejaVuSans-4d"/>
      <use xlink:href="#DejaVuSans-69" x="86.279297"/>
      <use xlink:href="#DejaVuSans-6e" x="114.0625"/>
      <use xlink:href="#DejaVuSans-75" x="177.441406"/>
      <use xlink:href="#DejaVuSans-74" x="240.820312"/>
      <use xlink:href="#DejaVuSans-65" x="280.029297"/>
      <use xlink:href="#DejaVuSans-73" x="341.552734"/>
     </g>
    </g>
   </g>
   <g id="matplotlib.axis_4">
    <g id="ytick_4">
     <g id="line2d_35">
      <path d="M 309.5475 153.34681 
L 552.146027 153.34681 
" clip-path="url(#pa0f9e4ffa6)" style="fill: none; stroke: #b0b0b0; stroke-opacity: 0.5; stroke-width: 0.8; stroke-linecap: square"/>
     </g>
     <g id="line2d_36">
      <g>
       <use xlink:href="#me20ed593f2" x="309.5475" y="153.34681" style="stroke: #000000; stroke-width: 0.8"/>
      </g>
     </g>
     <g id="text_19">
      <!-- 0 -->
      <g transform="translate(296.185 157.146029)scale(0.1 -0.1)">
       <use xlink:href="#DejaVuSans-30"/>
      </g>
     </g>
    </g>
    <g id="ytick_5">
     <g id="line2d_37">
      <path d="M 309.5475 128.099925 
L 552.146027 128.099925 
" clip-path="url(#pa0f9e4ffa6)" style="fill: none; stroke: #b0b0b0; stroke-opacity: 0.5; stroke-width: 0.8; stroke-linecap: square"/>
     </g>
     <g id="line2d_38">
      <g>
       <use xlink:href="#me20ed593f2" x="309.5475" y="128.099925" style="stroke: #000000; stroke-width: 0.8"/>
      </g>
     </g>
     <g id="text_20">
      <!-- 10 -->
      <g transform="translate(289.8225 131.899144)scale(0.1 -0.1)">
       <use xlink:href="#DejaVuSans-31"/>
       <use xlink:href="#DejaVuSans-30" x="63.623047"/>
      </g>
     </g>
    </g>
    <g id="ytick_6">
     <g id="line2d_39">
      <path d="M 309.5475 102.853041 
L 552.146027 102.853041 
" clip-path="url(#pa0f9e4ffa6)" style="fill: none; stroke: #b0b0b0; stroke-opacity: 0.5; stroke-width: 0.8; stroke-linecap: square"/>
     </g>
     <g id="line2d_40">
      <g>
       <use xlink:href="#me20ed593f2" x="309.5475" y="102.853041" style="stroke: #000000; stroke-width: 0.8"/>
      </g>
     </g>
     <g id="text_21">
      <!-- 20 -->
      <g transform="translate(289.8225 106.652259)scale(0.1 -0.1)">
       <use xlink:href="#DejaVuSans-32"/>
       <use xlink:href="#DejaVuSans-30" x="63.623047"/>
      </g>
     </g>
    </g>
    <g id="ytick_7">
     <g id="line2d_41">
      <path d="M 309.5475 77.606156 
L 552.146027 77.606156 
" clip-path="url(#pa0f9e4ffa6)" style="fill: none; stroke: #b0b0b0; stroke-opacity: 0.5; stroke-width: 0.8; stroke-linecap: square"/>
     </g>
     <g id="line2d_42">
      <g>
       <use xlink:href="#me20ed593f2" x="309.5475" y="77.606156" style="stroke: #000000; stroke-width: 0.8"/>
      </g>
     </g>
     <g id="text_22">
      <!-- 30 -->
      <g transform="translate(289.8225 81.405375)scale(0.1 -0.1)">
       <defs>
        <path id="DejaVuSans-33" d="M 2597 2516 
Q 3050 2419 3304 2112 
Q 3559 1806 3559 1356 
Q 3559 666 3084 287 
Q 2609 -91 1734 -91 
Q 1441 -91 1130 -33 
Q 819 25 488 141 
L 488 750 
Q 750 597 1062 519 
Q 1375 441 1716 441 
Q 2309 441 2620 675 
Q 2931 909 2931 1356 
Q 2931 1769 2642 2001 
Q 2353 2234 1838 2234 
L 1294 2234 
L 1294 2753 
L 1863 2753 
Q 2328 2753 2575 2939 
Q 2822 3125 2822 3475 
Q 2822 3834 2567 4026 
Q 2313 4219 1838 4219 
Q 1578 4219 1281 4162 
Q 984 4106 628 3988 
L 628 4550 
Q 988 4650 1302 4700 
Q 1616 4750 1894 4750 
Q 2613 4750 3031 4423 
Q 3450 4097 3450 3541 
Q 3450 3153 3228 2886 
Q 3006 2619 2597 2516 
z
" transform="scale(0.015625)"/>
       </defs>
       <use xlink:href="#DejaVuSans-33"/>
       <use xlink:href="#DejaVuSans-30" x="63.623047"/>
      </g>
     </g>
    </g>
    <g id="ytick_8">
     <g id="line2d_43">
      <path d="M 309.5475 52.359271 
L 552.146027 52.359271 
" clip-path="url(#pa0f9e4ffa6)" style="fill: none; stroke: #b0b0b0; stroke-opacity: 0.5; stroke-width: 0.8; stroke-linecap: square"/>
     </g>
     <g id="line2d_44">
      <g>
       <use xlink:href="#me20ed593f2" x="309.5475" y="52.359271" style="stroke: #000000; stroke-width: 0.8"/>
      </g>
     </g>
     <g id="text_23">
      <!-- 40 -->
      <g transform="translate(289.8225 56.15849)scale(0.1 -0.1)">
       <defs>
        <path id="DejaVuSans-34" d="M 2419 4116 
L 825 1625 
L 2419 1625 
L 2419 4116 
z
M 2253 4666 
L 3047 4666 
L 3047 1625 
L 3713 1625 
L 3713 1100 
L 3047 1100 
L 3047 0 
L 2419 0 
L 2419 1100 
L 313 1100 
L 313 1709 
L 2253 4666 
z
" transform="scale(0.015625)"/>
       </defs>
       <use xlink:href="#DejaVuSans-34"/>
       <use xlink:href="#DejaVuSans-30" x="63.623047"/>
      </g>
     </g>
    </g>
    <g id="ytick_9">
     <g id="line2d_45">
      <path d="M 309.5475 27.112386 
L 552.146027 27.112386 
" clip-path="url(#pa0f9e4ffa6)" style="fill: none; stroke: #b0b0b0; stroke-opacity: 0.5; stroke-width: 0.8; stroke-linecap: square"/>
     </g>
     <g id="line2d_46">
      <g>
       <use xlink:href="#me20ed593f2" x="309.5475" y="27.112386" style="stroke: #000000; stroke-width: 0.8"/>
      </g>
     </g>
     <g id="text_24">
      <!-- 50 -->
      <g transform="translate(289.8225 30.911605)scale(0.1 -0.1)">
       <use xlink:href="#DejaVuSans-35"/>
       <use xlink:href="#DejaVuSans-30" x="63.623047"/>
      </g>
     </g>
    </g>
   </g>
   <g id="line2d_47">
    <path d="M 320.574706 152.728827 
L 321.68019 152.228531 
L 322.785674 151.102107 
L 323.891159 149.554996 
L 324.996643 147.457602 
L 326.102127 144.493664 
L 329.971322 132.662824 
L 332.182291 126.131509 
L 334.946001 117.33359 
L 336.051486 112.875754 
L 337.709712 105.818335 
L 338.815196 102.369828 
L 339.920681 99.871252 
L 341.578907 96.186044 
L 343.237134 92.569537 
L 345.448102 88.799071 
L 347.659071 85.125057 
L 349.317297 82.974351 
L 350.975524 80.767032 
L 355.397461 74.318727 
L 357.055687 72.410807 
L 360.37214 69.047083 
L 362.583109 66.498869 
L 365.346819 64.146921 
L 367.005046 62.861865 
L 369.216014 61.490029 
L 370.321499 61.01736 
L 371.426983 60.701534 
L 372.532467 60.104917 
L 373.637952 58.994216 
L 375.84892 56.541489 
L 377.507147 54.982772 
L 379.165373 53.822249 
L 380.823599 52.818282 
L 383.034568 51.476805 
L 384.140052 51.082977 
L 387.456505 50.128085 
L 389.114732 49.106827 
L 390.220216 48.395466 
L 391.878442 47.704289 
L 396.300379 46.396768 
L 398.511348 45.344028 
L 399.616832 45.056671 
L 402.933285 44.582892 
L 404.591512 43.930524 
L 407.355222 42.714717 
L 409.013449 42.263622 
L 413.435386 41.671154 
L 416.199097 42.430611 
L 417.304581 42.236168 
L 422.832002 40.354972 
L 424.490229 39.756868 
L 425.595713 39.555386 
L 428.359424 39.300561 
L 431.123134 38.691652 
L 433.886845 38.782616 
L 437.203298 37.964385 
L 438.308782 38.001211 
L 440.519751 37.716416 
L 441.625235 37.398174 
L 442.730719 36.975866 
L 443.836204 36.798651 
L 446.047172 36.51842 
L 447.152657 36.259352 
L 449.363625 36.094138 
L 452.680078 35.80295 
L 455.443789 34.724092 
L 456.549273 34.843061 
L 458.760242 35.556741 
L 459.865726 35.553598 
L 461.523952 35.337571 
L 463.734921 35.236932 
L 465.393147 35.0189 
L 466.498632 35.055314 
L 468.7096 35.31997 
L 469.262342 35.205349 
L 471.473311 34.217343 
L 472.026053 34.228308 
L 474.237022 35.027584 
L 474.789764 35.022896 
L 477.553474 34.479038 
L 480.317185 34.290887 
L 483.080896 33.605714 
L 484.18638 33.769126 
L 485.291865 33.991752 
L 486.950091 34.039433 
L 488.608317 33.792856 
L 490.266544 33.474429 
L 491.372028 33.628987 
L 493.030255 34.062608 
L 494.135739 34.02224 
L 495.241223 33.765881 
L 499.110418 32.510229 
L 500.215902 32.498281 
L 502.979613 32.751694 
L 504.085097 32.590112 
L 505.743324 32.160339 
L 506.848808 32.130857 
L 508.507035 32.443101 
L 509.612519 32.396529 
L 511.270745 32.021303 
L 512.37623 31.982857 
L 514.587198 32.310113 
L 515.13994 32.267895 
L 516.798167 31.695732 
L 517.903651 31.368323 
L 519.009135 31.287501 
L 520.11462 31.351644 
L 521.772846 31.669274 
L 525.089299 32.843733 
L 526.194783 32.862397 
L 528.405752 32.668685 
L 530.063978 32.608958 
L 532.827689 32.128637 
L 533.933173 32.299937 
L 535.5914 32.688298 
L 536.696884 32.569075 
L 537.802368 32.147145 
L 538.35511 31.892762 
L 538.907852 33.900266 
L 539.460595 36.524376 
L 540.013337 40.121929 
L 540.566079 42.255939 
L 541.118821 45.862034 
L 541.118821 45.862034 
" clip-path="url(#pa0f9e4ffa6)" style="fill: none; stroke: #1f77b4; stroke-width: 1.5; stroke-linecap: square"/>
   </g>
   <g id="line2d_48">
    <path d="M 320.574706 152.82358 
L 321.68019 152.417615 
L 322.785674 151.440331 
L 323.891159 149.984804 
L 324.996643 147.880967 
L 326.102127 145.045212 
L 328.865838 137.342679 
L 333.287775 126.074047 
L 336.051486 118.074772 
L 337.15697 115.063028 
L 338.262454 111.400206 
L 339.920681 104.371502 
L 341.026165 100.13939 
L 342.131649 96.97581 
L 343.789876 93.287152 
L 346.000844 88.309313 
L 347.106329 85.732019 
L 348.211813 83.610992 
L 349.870039 81.327009 
L 353.186492 77.11311 
L 354.291977 75.741646 
L 355.950203 73.155597 
L 357.055687 71.424518 
L 358.161172 70.139474 
L 359.266656 69.260917 
L 360.37214 68.510742 
L 361.477624 67.496912 
L 362.583109 66.381208 
L 363.688593 65.636364 
L 364.794077 65.358315 
L 365.899562 65.162705 
L 367.005046 64.729624 
L 368.663272 63.574666 
L 369.768757 62.879833 
L 370.874241 62.531729 
L 371.979725 62.238192 
L 373.085209 61.640423 
L 375.84892 59.702894 
L 378.059889 57.948201 
L 379.165373 57.447975 
L 380.270857 57.012438 
L 381.376342 56.253905 
L 384.140052 53.914933 
L 386.351021 52.218286 
L 388.009247 50.79409 
L 389.114732 50.083533 
L 392.431184 48.571882 
L 394.089411 47.738085 
L 395.194895 47.438172 
L 398.511348 46.899106 
L 401.275059 45.945911 
L 402.380543 45.418884 
L 403.486027 44.60577 
L 405.696996 42.518463 
L 406.249738 42.299446 
L 406.80248 42.266592 
L 407.907964 42.520335 
L 408.460707 42.516134 
L 410.118933 42.044101 
L 411.224417 41.611883 
L 412.329902 41.540387 
L 412.882644 41.669546 
L 413.435386 42.047258 
L 415.646354 44.627317 
L 416.199097 44.92666 
L 416.751839 44.932197 
L 417.857323 44.409732 
L 419.515549 43.516308 
L 421.173776 42.55461 
L 423.384744 40.987979 
L 424.490229 40.497992 
L 428.359424 39.35847 
L 430.570392 38.843063 
L 433.334103 37.5334 
L 434.439587 37.286587 
L 435.545072 37.357257 
L 436.650556 37.562717 
L 437.203298 37.574531 
L 437.75604 37.426257 
L 439.414267 36.323279 
L 440.519751 36.043967 
L 441.625235 35.93161 
L 442.177977 35.726903 
L 443.836204 34.780486 
L 445.49443 34.248011 
L 446.599914 34.148485 
L 447.705399 34.404154 
L 448.258141 34.534069 
L 448.810883 34.490717 
L 450.469109 33.747635 
L 451.021852 33.770826 
L 451.574594 34.019511 
L 452.680078 34.833094 
L 453.23282 34.98475 
L 453.785562 34.873941 
L 455.443789 33.859141 
L 455.996531 33.825595 
L 456.549273 34.014253 
L 458.207499 34.952628 
L 458.760242 34.939282 
L 459.865726 34.725481 
L 460.418468 34.695643 
L 461.523952 35.006486 
L 462.076694 35.250022 
L 462.629437 35.341083 
L 463.182179 35.262371 
L 465.945889 34.114216 
L 469.262342 34.170158 
L 471.473311 33.79444 
L 472.026053 33.869873 
L 474.237022 34.551722 
L 475.342506 34.436661 
L 477.000732 33.930781 
L 478.106217 33.838154 
L 479.764443 34.186478 
L 480.317185 34.134145 
L 480.869927 33.916993 
L 481.975412 33.218735 
L 482.528154 32.9675 
L 483.080896 32.880741 
L 483.633638 32.957125 
L 484.739122 33.337065 
L 485.844607 33.531994 
L 489.16106 33.771887 
L 491.372028 33.632259 
L 492.477512 33.809338 
L 494.135739 34.213344 
L 494.688481 34.237416 
L 495.241223 34.095572 
L 495.793965 33.772523 
L 498.004934 31.977573 
L 498.557676 31.869249 
L 499.66316 32.129263 
L 500.768645 32.589467 
L 501.874129 32.732685 
L 504.63784 32.70635 
L 507.40155 32.604388 
L 509.059777 32.895285 
L 509.612519 32.849217 
L 510.718003 32.371016 
L 511.823487 31.788898 
L 512.37623 31.645656 
L 512.928972 31.649357 
L 515.13994 32.072879 
L 516.245425 31.969688 
L 517.903651 31.517382 
L 519.009135 31.256049 
L 519.561877 31.299732 
L 520.667362 31.948669 
L 521.772846 33.00115 
L 523.983815 35.260378 
L 525.089299 36.097149 
L 526.194783 36.556174 
L 528.958494 37.172838 
L 530.063978 37.286666 
L 536.696884 37.189981 
L 537.802368 36.828908 
L 538.35511 36.494553 
L 538.907852 38.170611 
L 539.460595 40.39509 
L 540.013337 43.536665 
L 540.566079 45.406413 
L 541.118821 48.657064 
L 541.118821 48.657064 
" clip-path="url(#pa0f9e4ffa6)" style="fill: none; stroke: #1f77b4; stroke-opacity: 0.2; stroke-width: 1.5; stroke-linecap: square"/>
   </g>
   <g id="line2d_49">
    <path d="M 320.574706 152.663007 
L 321.68019 152.163163 
L 322.785674 151.068856 
L 323.891159 149.56327 
L 324.443901 148.62022 
L 325.549385 145.992766 
L 326.654869 142.484735 
L 328.313096 136.961379 
L 331.629549 127.232258 
L 333.840517 120.727765 
L 334.946001 116.459984 
L 336.051486 110.603286 
L 337.709712 101.231637 
L 338.262454 99.053106 
L 338.815196 97.451848 
L 339.367939 96.32505 
L 344.89536 87.802157 
L 346.553587 85.060006 
L 347.659071 83.51557 
L 349.317297 81.393493 
L 350.975524 78.752372 
L 352.63375 76.034607 
L 353.739234 74.640644 
L 354.844719 73.69603 
L 357.055687 71.919684 
L 358.713914 70.316206 
L 360.37214 68.277107 
L 362.030367 66.335457 
L 363.688593 64.708613 
L 364.794077 63.50168 
L 365.899562 61.943562 
L 367.557788 59.392447 
L 368.663272 58.281276 
L 369.216014 57.975495 
L 369.768757 57.844908 
L 371.426983 58.017294 
L 371.979725 57.832781 
L 372.532467 57.439371 
L 373.637952 55.98561 
L 374.743436 54.537029 
L 375.84892 53.378265 
L 376.954404 52.628875 
L 379.165373 51.750194 
L 379.718115 51.317251 
L 381.929084 49.096682 
L 382.481826 48.861377 
L 383.58731 48.744268 
L 386.351021 48.906511 
L 386.903763 48.777435 
L 387.456505 48.418702 
L 389.114732 46.824722 
L 389.667474 46.562708 
L 390.220216 46.636233 
L 391.3257 47.477501 
L 391.878442 47.856797 
L 392.431184 48.018532 
L 392.983927 47.973873 
L 393.536669 47.71023 
L 396.853122 45.213938 
L 398.511348 44.241725 
L 400.722317 43.577108 
L 401.827801 43.392341 
L 404.038769 42.905748 
L 405.696996 42.690486 
L 408.460707 42.025034 
L 409.566191 41.85493 
L 410.671675 41.400686 
L 412.882644 40.320787 
L 413.435386 40.318175 
L 414.54087 40.65208 
L 415.646354 41.066617 
L 416.751839 41.2576 
L 417.857323 41.150486 
L 418.962807 40.717504 
L 421.726518 39.163785 
L 422.832002 38.977591 
L 425.595713 38.879887 
L 426.701197 39.147816 
L 427.806682 39.508474 
L 428.359424 39.552875 
L 428.912166 39.405786 
L 430.570392 38.602499 
L 431.123134 38.472918 
L 431.675877 38.57886 
L 433.334103 39.303119 
L 433.886845 39.437401 
L 434.439587 39.312933 
L 436.097814 38.36885 
L 436.650556 38.194465 
L 437.203298 38.250655 
L 438.861524 38.920416 
L 439.414267 39.007642 
L 439.967009 38.899313 
L 442.177977 37.611839 
L 442.730719 37.510166 
L 443.836204 37.834085 
L 444.941688 38.240229 
L 445.49443 38.32689 
L 446.047172 38.197258 
L 448.258141 37.324246 
L 448.810883 37.459603 
L 450.469109 38.495613 
L 451.021852 38.575766 
L 451.574594 38.331383 
L 452.127336 37.743997 
L 453.785562 35.487343 
L 454.338304 34.988788 
L 454.891047 34.735612 
L 455.443789 34.701667 
L 455.996531 34.808815 
L 456.549273 35.052415 
L 457.654757 35.894516 
L 458.760242 36.972024 
L 459.312984 37.296874 
L 459.865726 37.328797 
L 460.418468 37.079343 
L 462.076694 35.689541 
L 462.629437 35.482037 
L 463.182179 35.462211 
L 464.840405 36.024224 
L 468.156858 36.891579 
L 468.7096 36.795636 
L 469.262342 36.48207 
L 470.920569 34.890853 
L 471.473311 34.694014 
L 472.026053 34.791757 
L 473.131537 35.586788 
L 473.684279 35.832897 
L 474.237022 35.843877 
L 474.789764 35.62689 
L 475.895248 34.936696 
L 476.44799 34.71469 
L 477.000732 34.676883 
L 478.658959 35.298431 
L 479.764443 35.663777 
L 480.869927 35.516592 
L 481.975412 34.922357 
L 483.080896 34.36697 
L 483.633638 34.286786 
L 484.18638 34.41098 
L 485.844607 35.265676 
L 486.397349 35.428 
L 486.950091 35.453759 
L 487.502833 35.30266 
L 488.608317 34.65643 
L 489.713802 34.042146 
L 490.266544 33.957508 
L 490.819286 34.126792 
L 492.477512 35.18383 
L 493.030255 35.30943 
L 494.135739 35.018679 
L 495.241223 34.556636 
L 495.793965 34.485014 
L 497.452192 34.700352 
L 498.004934 34.673682 
L 500.768645 33.792709 
L 503.532355 34.266702 
L 504.085097 34.108174 
L 505.743324 33.184806 
L 506.296066 33.028095 
L 506.848808 32.98844 
L 507.954292 33.139468 
L 509.059777 32.904152 
L 510.718003 32.494989 
L 511.823487 32.757635 
L 512.928972 33.210767 
L 514.034456 33.628212 
L 514.587198 33.66738 
L 515.13994 33.542071 
L 516.245425 32.676686 
L 517.350909 31.921867 
L 517.903651 31.740998 
L 518.456393 31.793887 
L 519.561877 32.070358 
L 522.87833 32.424511 
L 523.983815 32.242032 
L 525.089299 31.585764 
L 526.194783 30.971436 
L 526.747525 30.880399 
L 527.85301 31.175528 
L 528.958494 31.493159 
L 529.511236 31.503286 
L 530.61672 31.173235 
L 532.274947 30.597042 
L 533.380431 30.675414 
L 534.485915 30.940648 
L 535.038657 30.956961 
L 535.5914 30.807566 
L 538.35511 29.449597 
L 538.907852 31.696581 
L 539.460595 34.559105 
L 540.013337 38.412644 
L 540.566079 40.699543 
L 541.118821 44.470945 
L 541.118821 44.470945 
" clip-path="url(#pa0f9e4ffa6)" style="fill: none; stroke: #1f77b4; stroke-opacity: 0.2; stroke-width: 1.5; stroke-linecap: square"/>
   </g>
   <g id="line2d_50">
    <path d="M 320.574706 152.699893 
L 321.68019 152.104817 
L 322.785674 150.797135 
L 323.891159 149.116912 
L 324.996643 147.059742 
L 326.102127 144.115578 
L 327.760354 138.483657 
L 329.41858 133.042167 
L 331.629549 125.710684 
L 333.840517 117.891813 
L 334.946001 114.30178 
L 336.051486 109.949204 
L 337.709712 102.902585 
L 338.262454 101.353105 
L 338.815196 100.457841 
L 340.473423 99.239878 
L 341.026165 98.312852 
L 342.131649 95.453172 
L 343.237134 92.734395 
L 343.789876 91.795688 
L 344.89536 90.489045 
L 346.553587 88.618218 
L 348.764555 86.025814 
L 350.422782 84.358795 
L 351.528266 82.890469 
L 352.63375 80.891867 
L 354.844719 76.490905 
L 355.950203 74.929695 
L 357.055687 73.88822 
L 358.713914 72.473141 
L 359.819398 71.172857 
L 362.030367 68.012432 
L 364.794077 64.945187 
L 365.899562 63.966513 
L 366.452304 63.72573 
L 368.663272 63.560483 
L 369.216014 63.304129 
L 372.532467 60.889701 
L 373.637952 59.727338 
L 378.612631 52.782896 
L 379.165373 52.268577 
L 379.718115 51.970358 
L 380.823599 51.692791 
L 381.929084 51.464131 
L 383.58731 50.699178 
L 384.692794 50.430506 
L 386.351021 50.496752 
L 388.009247 50.805372 
L 388.561989 50.725019 
L 389.114732 50.412227 
L 389.667474 49.781216 
L 391.878442 46.377246 
L 392.431184 46.066556 
L 392.983927 46.01003 
L 393.536669 46.139773 
L 394.642153 46.666384 
L 395.194895 46.699425 
L 395.747637 46.580342 
L 396.300379 46.326321 
L 397.958606 45.137864 
L 399.06409 44.749802 
L 399.616832 44.73246 
L 403.486027 45.53157 
L 404.591512 45.497374 
L 405.696996 44.987342 
L 406.80248 43.98244 
L 407.907964 42.960694 
L 408.460707 42.609515 
L 409.013449 42.427336 
L 409.566191 42.439432 
L 411.224417 42.961123 
L 411.777159 43.12569 
L 412.329902 43.13473 
L 412.882644 42.951917 
L 416.199097 41.180469 
L 417.857323 40.611356 
L 419.515549 40.519401 
L 421.726518 41.047773 
L 422.27926 40.985707 
L 423.937487 40.145017 
L 425.042971 39.701212 
L 427.806682 39.120513 
L 429.464908 38.794479 
L 430.570392 38.879802 
L 431.675877 39.255038 
L 432.781361 39.590411 
L 433.334103 39.620037 
L 433.886845 39.51813 
L 434.992329 38.977062 
L 436.097814 38.404561 
L 437.203298 38.06797 
L 438.308782 38.200593 
L 439.967009 38.529173 
L 441.072493 38.488528 
L 443.283462 37.936089 
L 451.021852 35.796255 
L 454.338304 35.524596 
L 455.996531 35.571777 
L 457.102015 35.304617 
L 458.760242 34.758917 
L 459.865726 34.606516 
L 460.97121 34.74101 
L 462.629437 35.162294 
L 463.182179 35.187348 
L 464.287663 34.894921 
L 465.393147 34.642461 
L 466.498632 34.553301 
L 469.262342 34.963819 
L 470.367827 34.668404 
L 472.026053 34.023295 
L 473.131537 34.293294 
L 475.342506 34.969069 
L 477.000732 34.939785 
L 478.106217 34.468936 
L 480.317185 33.093983 
L 481.42267 33.011636 
L 482.528154 33.387977 
L 483.633638 33.65647 
L 484.18638 33.718744 
L 484.739122 33.668515 
L 486.397349 33.187269 
L 487.502833 32.976401 
L 495.241223 32.645436 
L 496.89945 32.121594 
L 498.557676 31.436329 
L 499.66316 31.230647 
L 501.321387 31.381768 
L 502.426871 31.384759 
L 503.532355 31.136162 
L 504.63784 30.768166 
L 505.743324 30.679307 
L 506.848808 30.858108 
L 508.507035 31.447677 
L 509.612519 31.603197 
L 512.37623 31.358062 
L 513.481714 31.383153 
L 518.456393 30.75346 
L 520.11462 30.347481 
L 522.325588 29.623259 
L 522.87833 29.618288 
L 523.431072 29.785226 
L 525.642041 31.068578 
L 526.194783 31.059581 
L 526.747525 30.792398 
L 528.405752 29.573201 
L 528.958494 29.312985 
L 533.380431 28.602606 
L 534.485915 29.190378 
L 535.5914 30.045108 
L 536.144142 30.275104 
L 537.249626 30.237932 
L 538.35511 29.734137 
L 538.907852 31.833606 
L 539.460595 34.618935 
L 540.013337 38.416478 
L 540.566079 40.661861 
L 541.118821 44.458093 
L 541.118821 44.458093 
" clip-path="url(#pa0f9e4ffa6)" style="fill: none; stroke: #1f77b4; stroke-opacity: 0.2; stroke-width: 1.5; stroke-linecap: square"/>
   </g>
   <g id="patch_10">
    <path d="M 309.5475 159.038125 
L 309.5475 22.318125 
" style="fill: none; stroke: #000000; stroke-width: 0.8; stroke-linejoin: miter; stroke-linecap: square"/>
   </g>
   <g id="patch_11">
    <path d="M 552.146027 159.038125 
L 552.146027 22.318125 
" style="fill: none; stroke: #000000; stroke-width: 0.8; stroke-linejoin: miter; stroke-linecap: square"/>
   </g>
   <g id="patch_12">
    <path d="M 309.5475 159.038125 
L 552.146027 159.038125 
" style="fill: none; stroke: #000000; stroke-width: 0.8; stroke-linejoin: miter; stroke-linecap: square"/>
   </g>
   <g id="patch_13">
    <path d="M 309.5475 22.318125 
L 552.146027 22.318125 
" style="fill: none; stroke: #000000; stroke-width: 0.8; stroke-linejoin: miter; stroke-linecap: square"/>
   </g>
   <g id="text_25">
    <!-- Mean human normalized score -->
    <g transform="translate(338.389576 16.318125)scale(0.12 -0.12)">
     <use xlink:href="#DejaVuSans-4d"/>
     <use xlink:href="#DejaVuSans-65" x="86.279297"/>
     <use xlink:href="#DejaVuSans-61" x="147.802734"/>
     <use xlink:href="#DejaVuSans-6e" x="209.082031"/>
     <use xlink:href="#DejaVuSans-20" x="272.460938"/>
     <use xlink:href="#DejaVuSans-68" x="304.248047"/>
     <use xlink:href="#DejaVuSans-75" x="367.626953"/>
     <use xlink:href="#DejaVuSans-6d" x="431.005859"/>
     <use xlink:href="#DejaVuSans-61" x="528.417969"/>
     <use xlink:href="#DejaVuSans-6e" x="589.697266"/>
     <use xlink:href="#DejaVuSans-20" x="653.076172"/>
     <use xlink:href="#DejaVuSans-6e" x="684.863281"/>
     <use xlink:href="#DejaVuSans-6f" x="748.242188"/>
     <use xlink:href="#DejaVuSans-72" x="809.423828"/>
     <use xlink:href="#DejaVuSans-6d" x="848.787109"/>
     <use xlink:href="#DejaVuSans-61" x="946.199219"/>
     <use xlink:href="#DejaVuSans-6c" x="1007.478516"/>
     <use xlink:href="#DejaVuSans-69" x="1035.261719"/>
     <use xlink:href="#DejaVuSans-7a" x="1063.044922"/>
     <use xlink:href="#DejaVuSans-65" x="1115.535156"/>
     <use xlink:href="#DejaVuSans-64" x="1177.058594"/>
     <use xlink:href="#DejaVuSans-20" x="1240.535156"/>
     <use xlink:href="#DejaVuSans-73" x="1272.322266"/>
     <use xlink:href="#DejaVuSans-63" x="1324.421875"/>
     <use xlink:href="#DejaVuSans-6f" x="1379.402344"/>
     <use xlink:href="#DejaVuSans-72" x="1440.583984"/>
     <use xlink:href="#DejaVuSans-65" x="1479.447266"/>
    </g>
   </g>
  </g>
  <g id="axes_3">
   <g id="patch_14">
    <path d="M 132.51 142.358125 
L 262.11 142.358125 
L 262.11 70.358125 
L 132.51 70.358125 
z
" style="fill: #ffffff"/>
   </g>
   <g id="patch_15">
    <path d="M 132.51 70.358125 
L 37.952056 140.148165 
" style="fill: none; stroke: #808080; stroke-linejoin: miter"/>
   </g>
   <g id="patch_16">
    <path d="M 262.11 142.358125 
L 43.465662 153.376253 
" style="fill: none; stroke: #808080; stroke-linejoin: miter"/>
   </g>
   <g id="matplotlib.axis_5">
    <g id="xtick_13">
     <g id="line2d_51">
      <path d="M 132.51 142.358125 
L 132.51 70.358125 
" clip-path="url(#p7462f82575)" style="fill: none; stroke: #b0b0b0; stroke-opacity: 0.5; stroke-width: 0.8; stroke-linecap: square"/>
     </g>
     <g id="line2d_52">
      <g>
       <use xlink:href="#m73ef637df3" x="132.51" y="142.358125" style="stroke: #000000; stroke-width: 0.8"/>
      </g>
     </g>
     <g id="text_26">
      <!-- 0 -->
      <g transform="translate(129.32875 156.956562)scale(0.1 -0.1)">
       <use xlink:href="#DejaVuSans-30"/>
      </g>
     </g>
    </g>
    <g id="xtick_14">
     <g id="line2d_53">
      <path d="M 175.71 142.358125 
L 175.71 70.358125 
" clip-path="url(#p7462f82575)" style="fill: none; stroke: #b0b0b0; stroke-opacity: 0.5; stroke-width: 0.8; stroke-linecap: square"/>
     </g>
     <g id="line2d_54">
      <g>
       <use xlink:href="#m73ef637df3" x="175.71" y="142.358125" style="stroke: #000000; stroke-width: 0.8"/>
      </g>
     </g>
     <g id="text_27">
      <!-- 20 -->
      <g transform="translate(169.3475 156.956562)scale(0.1 -0.1)">
       <use xlink:href="#DejaVuSans-32"/>
       <use xlink:href="#DejaVuSans-30" x="63.623047"/>
      </g>
     </g>
    </g>
    <g id="xtick_15">
     <g id="line2d_55">
      <path d="M 218.91 142.358125 
L 218.91 70.358125 
" clip-path="url(#p7462f82575)" style="fill: none; stroke: #b0b0b0; stroke-opacity: 0.5; stroke-width: 0.8; stroke-linecap: square"/>
     </g>
     <g id="line2d_56">
      <g>
       <use xlink:href="#m73ef637df3" x="218.91" y="142.358125" style="stroke: #000000; stroke-width: 0.8"/>
      </g>
     </g>
     <g id="text_28">
      <!-- 40 -->
      <g transform="translate(212.5475 156.956562)scale(0.1 -0.1)">
       <use xlink:href="#DejaVuSans-34"/>
       <use xlink:href="#DejaVuSans-30" x="63.623047"/>
      </g>
     </g>
    </g>
    <g id="xtick_16">
     <g id="line2d_57">
      <path d="M 262.11 142.358125 
L 262.11 70.358125 
" clip-path="url(#p7462f82575)" style="fill: none; stroke: #b0b0b0; stroke-opacity: 0.5; stroke-width: 0.8; stroke-linecap: square"/>
     </g>
     <g id="line2d_58">
      <g>
       <use xlink:href="#m73ef637df3" x="262.11" y="142.358125" style="stroke: #000000; stroke-width: 0.8"/>
      </g>
     </g>
     <g id="text_29">
      <!-- 60 -->
      <g transform="translate(255.7475 156.956562)scale(0.1 -0.1)">
       <defs>
        <path id="DejaVuSans-36" d="M 2113 2584 
Q 1688 2584 1439 2293 
Q 1191 2003 1191 1497 
Q 1191 994 1439 701 
Q 1688 409 2113 409 
Q 2538 409 2786 701 
Q 3034 994 3034 1497 
Q 3034 2003 2786 2293 
Q 2538 2584 2113 2584 
z
M 3366 4563 
L 3366 3988 
Q 3128 4100 2886 4159 
Q 2644 4219 2406 4219 
Q 1781 4219 1451 3797 
Q 1122 3375 1075 2522 
Q 1259 2794 1537 2939 
Q 1816 3084 2150 3084 
Q 2853 3084 3261 2657 
Q 3669 2231 3669 1497 
Q 3669 778 3244 343 
Q 2819 -91 2113 -91 
Q 1303 -91 875 529 
Q 447 1150 447 2328 
Q 447 3434 972 4092 
Q 1497 4750 2381 4750 
Q 2619 4750 2861 4703 
Q 3103 4656 3366 4563 
z
" transform="scale(0.015625)"/>
       </defs>
       <use xlink:href="#DejaVuSans-36"/>
       <use xlink:href="#DejaVuSans-30" x="63.623047"/>
      </g>
     </g>
    </g>
   </g>
   <g id="matplotlib.axis_6">
    <g id="ytick_10">
     <g id="line2d_59">
      <path d="M 132.51 142.358125 
L 262.11 142.358125 
" clip-path="url(#p7462f82575)" style="fill: none; stroke: #b0b0b0; stroke-opacity: 0.5; stroke-width: 0.8; stroke-linecap: square"/>
     </g>
     <g id="line2d_60">
      <g>
       <use xlink:href="#me20ed593f2" x="132.51" y="142.358125" style="stroke: #000000; stroke-width: 0.8"/>
      </g>
     </g>
     <g id="text_30">
      <!-- 0.0 -->
      <g transform="translate(109.606875 146.157344)scale(0.1 -0.1)">
       <use xlink:href="#DejaVuSans-30"/>
       <use xlink:href="#DejaVuSans-2e" x="63.623047"/>
       <use xlink:href="#DejaVuSans-30" x="95.410156"/>
      </g>
     </g>
    </g>
    <g id="ytick_11">
     <g id="line2d_61">
      <path d="M 132.51 118.358125 
L 262.11 118.358125 
" clip-path="url(#p7462f82575)" style="fill: none; stroke: #b0b0b0; stroke-opacity: 0.5; stroke-width: 0.8; stroke-linecap: square"/>
     </g>
     <g id="line2d_62">
      <g>
       <use xlink:href="#me20ed593f2" x="132.51" y="118.358125" style="stroke: #000000; stroke-width: 0.8"/>
      </g>
     </g>
     <g id="text_31">
      <!-- 0.5 -->
      <g transform="translate(109.606875 122.157344)scale(0.1 -0.1)">
       <use xlink:href="#DejaVuSans-30"/>
       <use xlink:href="#DejaVuSans-2e" x="63.623047"/>
       <use xlink:href="#DejaVuSans-35" x="95.410156"/>
      </g>
     </g>
    </g>
    <g id="ytick_12">
     <g id="line2d_63">
      <path d="M 132.51 94.358125 
L 262.11 94.358125 
" clip-path="url(#p7462f82575)" style="fill: none; stroke: #b0b0b0; stroke-opacity: 0.5; stroke-width: 0.8; stroke-linecap: square"/>
     </g>
     <g id="line2d_64">
      <g>
       <use xlink:href="#me20ed593f2" x="132.51" y="94.358125" style="stroke: #000000; stroke-width: 0.8"/>
      </g>
     </g>
     <g id="text_32">
      <!-- 1.0 -->
      <g transform="translate(109.606875 98.157344)scale(0.1 -0.1)">
       <use xlink:href="#DejaVuSans-31"/>
       <use xlink:href="#DejaVuSans-2e" x="63.623047"/>
       <use xlink:href="#DejaVuSans-30" x="95.410156"/>
      </g>
     </g>
    </g>
    <g id="ytick_13">
     <g id="line2d_65">
      <path d="M 132.51 70.358125 
L 262.11 70.358125 
" clip-path="url(#p7462f82575)" style="fill: none; stroke: #b0b0b0; stroke-opacity: 0.5; stroke-width: 0.8; stroke-linecap: square"/>
     </g>
     <g id="line2d_66">
      <g>
       <use xlink:href="#me20ed593f2" x="132.51" y="70.358125" style="stroke: #000000; stroke-width: 0.8"/>
      </g>
     </g>
     <g id="text_33">
      <!-- 1.5 -->
      <g transform="translate(109.606875 74.157344)scale(0.1 -0.1)">
       <use xlink:href="#DejaVuSans-31"/>
       <use xlink:href="#DejaVuSans-2e" x="63.623047"/>
       <use xlink:href="#DejaVuSans-35" x="95.410156"/>
      </g>
     </g>
    </g>
   </g>
   <g id="line2d_67">
    <path d="M 132.513525 138.945508 
L 145.505998 137.615493 
L 158.49847 135.866311 
L 171.490942 132.546022 
L 184.483415 128.544383 
L 197.475887 123.755368 
L 210.468359 118.500544 
L 223.460832 113.120567 
L 236.453304 107.602668 
L 262.438249 96.20001 
L 327.400611 68.96151 
L 340.393083 63.700672 
L 353.385555 58.89047 
L 366.378028 54.808213 
L 379.3705 51.461555 
L 392.362973 48.990944 
L 431.34039 42.901973 
L 444.332862 40.733791 
L 457.325334 38.174613 
L 483.310279 32.26652 
L 496.302751 29.166628 
L 522.287696 22.51085 
L 548.272641 16.036824 
L 561.265113 13.298333 
L 569.738634 11.821185 
L 569.738634 11.821185 
" clip-path="url(#p7462f82575)" style="fill: none; stroke: #1f77b4; stroke-width: 1.5; stroke-linecap: square"/>
   </g>
   <g id="line2d_68">
    <path d="M 132.513525 139.12081 
L 145.505998 137.900666 
L 158.49847 136.374965 
L 171.490942 133.346999 
L 184.483415 129.773969 
L 197.475887 125.503071 
L 210.468359 120.500312 
L 223.460832 115.08971 
L 236.453304 109.387561 
L 262.438249 97.461612 
L 301.415666 81.445641 
L 314.408138 75.825081 
L 327.400611 69.821077 
L 340.393083 63.521414 
L 353.385555 57.970728 
L 366.378028 53.157966 
L 379.3705 49.255307 
L 392.362973 46.577133 
L 418.347917 42.620357 
L 431.34039 40.998999 
L 444.332862 39.597291 
L 457.325334 38.028533 
L 470.317807 36.584747 
L 483.310279 35.302327 
L 496.302751 33.550323 
L 509.295224 31.368122 
L 522.287696 28.817613 
L 535.280169 25.61255 
L 548.272641 22.077504 
L 561.265113 18.756756 
L 569.738634 16.867324 
L 569.738634 16.867324 
" clip-path="url(#p7462f82575)" style="fill: none; stroke: #1f77b4; stroke-opacity: 0.2; stroke-width: 1.5; stroke-linecap: square"/>
   </g>
   <g id="line2d_69">
    <path d="M 132.513525 139.349942 
L 145.505998 137.935248 
L 158.49847 136.066969 
L 171.490942 132.563503 
L 184.483415 127.988443 
L 197.475887 122.644984 
L 236.453304 105.696653 
L 262.438249 94.6908 
L 275.430721 89.272006 
L 288.423194 84.044436 
L 301.415666 78.970501 
L 314.408138 74.17902 
L 327.400611 69.575396 
L 340.393083 65.162103 
L 353.385555 60.605708 
L 366.378028 56.498575 
L 379.3705 52.968105 
L 392.362973 50.230382 
L 405.355445 48.240454 
L 418.347917 46.81402 
L 444.332862 43.543212 
L 457.325334 41.519819 
L 470.317807 38.751604 
L 483.310279 35.664617 
L 496.302751 32.292593 
L 509.295224 28.283983 
L 522.287696 23.81696 
L 535.280169 19.700979 
L 548.272641 16.115244 
L 561.265113 13.483265 
L 569.738634 12.409121 
L 569.738634 12.409121 
" clip-path="url(#p7462f82575)" style="fill: none; stroke: #1f77b4; stroke-opacity: 0.2; stroke-width: 1.5; stroke-linecap: square"/>
   </g>
   <g id="line2d_70">
    <path d="M 132.513525 138.36577 
L 145.505998 137.010564 
L 158.49847 135.156999 
L 171.490942 131.727563 
L 184.483415 127.870736 
L 197.475887 123.118049 
L 236.453304 107.723791 
L 249.445776 101.903403 
L 262.438249 96.447617 
L 275.430721 90.80974 
L 288.423194 85.033569 
L 301.415666 79.098841 
L 314.408138 73.381092 
L 327.400611 67.488057 
L 340.393083 62.4185 
L 353.385555 58.094975 
L 366.378028 54.768097 
L 379.3705 52.161251 
L 405.355445 48.116292 
L 418.347917 45.621806 
L 431.34039 42.517694 
L 444.332862 39.06087 
L 457.325334 34.975487 
L 483.310279 25.832616 
L 496.302751 21.656968 
L 509.295224 17.801324 
L 522.287696 14.897976 
L 535.280169 12.619926 
L 548.272641 9.917725 
L 569.738634 6.187112 
L 569.738634 6.187112 
" clip-path="url(#p7462f82575)" style="fill: none; stroke: #1f77b4; stroke-opacity: 0.2; stroke-width: 1.5; stroke-linecap: square"/>
   </g>
   <g id="patch_17">
    <path d="M 132.51 142.358125 
L 132.51 70.358125 
" style="fill: none; stroke: #000000; stroke-width: 0.8; stroke-linejoin: miter; stroke-linecap: square"/>
   </g>
   <g id="patch_18">
    <path d="M 262.11 142.358125 
L 262.11 70.358125 
" style="fill: none; stroke: #000000; stroke-width: 0.8; stroke-linejoin: miter; stroke-linecap: square"/>
   </g>
   <g id="patch_19">
    <path d="M 132.51 142.358125 
L 262.11 142.358125 
" style="fill: none; stroke: #000000; stroke-width: 0.8; stroke-linejoin: miter; stroke-linecap: square"/>
   </g>
   <g id="patch_20">
    <path d="M 132.51 70.358125 
L 262.11 70.358125 
" style="fill: none; stroke: #000000; stroke-width: 0.8; stroke-linejoin: miter; stroke-linecap: square"/>
   </g>
  </g>
  <g id="axes_4">
   <g id="patch_21">
    <path d="M 408.99 135.878125 
L 538.59 135.878125 
L 538.59 63.878125 
L 408.99 63.878125 
z
" style="fill: #ffffff"/>
   </g>
   <g id="patch_22">
    <path d="M 408.99 63.878125 
L 320.574556 133.149302 
" style="fill: none; stroke: #808080; stroke-linejoin: miter"/>
   </g>
   <g id="patch_23">
    <path d="M 538.59 135.878125 
L 326.088162 153.34681 
" style="fill: none; stroke: #808080; stroke-linejoin: miter"/>
   </g>
   <g id="matplotlib.axis_7">
    <g id="xtick_17">
     <g id="line2d_71">
      <path d="M 408.99 135.878125 
L 408.99 63.878125 
" clip-path="url(#p24d4b8ceb6)" style="fill: none; stroke: #b0b0b0; stroke-opacity: 0.5; stroke-width: 0.8; stroke-linecap: square"/>
     </g>
     <g id="line2d_72">
      <g>
       <use xlink:href="#m73ef637df3" x="408.99" y="135.878125" style="stroke: #000000; stroke-width: 0.8"/>
      </g>
     </g>
     <g id="text_34">
      <!-- 0 -->
      <g transform="translate(405.80875 150.476562)scale(0.1 -0.1)">
       <use xlink:href="#DejaVuSans-30"/>
      </g>
     </g>
    </g>
    <g id="xtick_18">
     <g id="line2d_73">
      <path d="M 452.19 135.878125 
L 452.19 63.878125 
" clip-path="url(#p24d4b8ceb6)" style="fill: none; stroke: #b0b0b0; stroke-opacity: 0.5; stroke-width: 0.8; stroke-linecap: square"/>
     </g>
     <g id="line2d_74">
      <g>
       <use xlink:href="#m73ef637df3" x="452.19" y="135.878125" style="stroke: #000000; stroke-width: 0.8"/>
      </g>
     </g>
     <g id="text_35">
      <!-- 20 -->
      <g transform="translate(445.8275 150.476562)scale(0.1 -0.1)">
       <use xlink:href="#DejaVuSans-32"/>
       <use xlink:href="#DejaVuSans-30" x="63.623047"/>
      </g>
     </g>
    </g>
    <g id="xtick_19">
     <g id="line2d_75">
      <path d="M 495.39 135.878125 
L 495.39 63.878125 
" clip-path="url(#p24d4b8ceb6)" style="fill: none; stroke: #b0b0b0; stroke-opacity: 0.5; stroke-width: 0.8; stroke-linecap: square"/>
     </g>
     <g id="line2d_76">
      <g>
       <use xlink:href="#m73ef637df3" x="495.39" y="135.878125" style="stroke: #000000; stroke-width: 0.8"/>
      </g>
     </g>
     <g id="text_36">
      <!-- 40 -->
      <g transform="translate(489.0275 150.476562)scale(0.1 -0.1)">
       <use xlink:href="#DejaVuSans-34"/>
       <use xlink:href="#DejaVuSans-30" x="63.623047"/>
      </g>
     </g>
    </g>
    <g id="xtick_20">
     <g id="line2d_77">
      <path d="M 538.59 135.878125 
L 538.59 63.878125 
" clip-path="url(#p24d4b8ceb6)" style="fill: none; stroke: #b0b0b0; stroke-opacity: 0.5; stroke-width: 0.8; stroke-linecap: square"/>
     </g>
     <g id="line2d_78">
      <g>
       <use xlink:href="#m73ef637df3" x="538.59" y="135.878125" style="stroke: #000000; stroke-width: 0.8"/>
      </g>
     </g>
     <g id="text_37">
      <!-- 60 -->
      <g transform="translate(532.2275 150.476562)scale(0.1 -0.1)">
       <use xlink:href="#DejaVuSans-36"/>
       <use xlink:href="#DejaVuSans-30" x="63.623047"/>
      </g>
     </g>
    </g>
   </g>
   <g id="matplotlib.axis_8">
    <g id="ytick_14">
     <g id="line2d_79">
      <path d="M 408.99 135.878125 
L 538.59 135.878125 
" clip-path="url(#p24d4b8ceb6)" style="fill: none; stroke: #b0b0b0; stroke-opacity: 0.5; stroke-width: 0.8; stroke-linecap: square"/>
     </g>
     <g id="line2d_80">
      <g>
       <use xlink:href="#me20ed593f2" x="408.99" y="135.878125" style="stroke: #000000; stroke-width: 0.8"/>
      </g>
     </g>
     <g id="text_38">
      <!-- 0 -->
      <g transform="translate(395.6275 139.677344)scale(0.1 -0.1)">
       <use xlink:href="#DejaVuSans-30"/>
      </g>
     </g>
    </g>
    <g id="ytick_15">
     <g id="line2d_81">
      <path d="M 408.99 90.878125 
L 538.59 90.878125 
" clip-path="url(#p24d4b8ceb6)" style="fill: none; stroke: #b0b0b0; stroke-opacity: 0.5; stroke-width: 0.8; stroke-linecap: square"/>
     </g>
     <g id="line2d_82">
      <g>
       <use xlink:href="#me20ed593f2" x="408.99" y="90.878125" style="stroke: #000000; stroke-width: 0.8"/>
      </g>
     </g>
     <g id="text_39">
      <!-- 5 -->
      <g transform="translate(395.6275 94.677344)scale(0.1 -0.1)">
       <use xlink:href="#DejaVuSans-35"/>
      </g>
     </g>
    </g>
   </g>
   <g id="line2d_83">
    <path d="M 408.993525 133.67514 
L 421.985998 132.879377 
L 434.97847 131.891689 
L 447.970942 130.058055 
L 460.963415 127.876217 
L 473.955887 125.300509 
L 486.948359 122.361079 
L 499.940832 118.990611 
L 512.933304 114.884298 
L 525.925776 109.969561 
L 538.918249 104.318462 
L 551.910721 98.146796 
L 569.738634 89.323532 
L 569.738634 89.323532 
" clip-path="url(#p24d4b8ceb6)" style="fill: none; stroke: #1f77b4; stroke-width: 1.5; stroke-linecap: square"/>
   </g>
   <g id="line2d_84">
    <path d="M 408.993525 134.012915 
L 421.985998 133.354241 
L 434.97847 132.565734 
L 447.970942 130.983797 
L 460.963415 129.081915 
L 473.955887 126.737351 
L 486.948359 123.89326 
L 499.940832 120.480892 
L 512.933304 116.39351 
L 525.925776 111.600208 
L 538.918249 106.284621 
L 569.738634 92.850557 
L 569.738634 92.850557 
" clip-path="url(#p24d4b8ceb6)" style="fill: none; stroke: #1f77b4; stroke-opacity: 0.2; stroke-width: 1.5; stroke-linecap: square"/>
   </g>
   <g id="line2d_85">
    <path d="M 408.993525 133.440507 
L 421.985998 132.62232 
L 434.97847 131.658663 
L 447.970942 129.901418 
L 460.963415 127.757683 
L 473.955887 125.232136 
L 486.948359 122.390576 
L 499.940832 119.028793 
L 512.933304 114.793376 
L 525.925776 109.662458 
L 538.918249 103.700102 
L 551.910721 97.157039 
L 569.738634 87.86942 
L 569.738634 87.86942 
" clip-path="url(#p24d4b8ceb6)" style="fill: none; stroke: #1f77b4; stroke-opacity: 0.2; stroke-width: 1.5; stroke-linecap: square"/>
   </g>
   <g id="line2d_86">
    <path d="M 408.993525 133.571998 
L 421.985998 132.66157 
L 434.97847 131.450671 
L 447.970942 129.288949 
L 460.963415 126.789054 
L 473.955887 123.932039 
L 486.948359 120.799401 
L 499.940832 117.462149 
L 512.933304 113.46601 
L 525.925776 108.646019 
L 538.918249 102.970663 
L 551.910721 96.635457 
L 569.738634 87.250619 
L 569.738634 87.250619 
" clip-path="url(#p24d4b8ceb6)" style="fill: none; stroke: #1f77b4; stroke-opacity: 0.2; stroke-width: 1.5; stroke-linecap: square"/>
   </g>
   <g id="patch_24">
    <path d="M 408.99 135.878125 
L 408.99 63.878125 
" style="fill: none; stroke: #000000; stroke-width: 0.8; stroke-linejoin: miter; stroke-linecap: square"/>
   </g>
   <g id="patch_25">
    <path d="M 538.59 135.878125 
L 538.59 63.878125 
" style="fill: none; stroke: #000000; stroke-width: 0.8; stroke-linejoin: miter; stroke-linecap: square"/>
   </g>
   <g id="patch_26">
    <path d="M 408.99 135.878125 
L 538.59 135.878125 
" style="fill: none; stroke: #000000; stroke-width: 0.8; stroke-linejoin: miter; stroke-linecap: square"/>
   </g>
   <g id="patch_27">
    <path d="M 408.99 63.878125 
L 538.59 63.878125 
" style="fill: none; stroke: #000000; stroke-width: 0.8; stroke-linejoin: miter; stroke-linecap: square"/>
   </g>
  </g>
  <g id="legend_1">
   <g id="patch_28">
    <path d="M 227.943125 228.758125 
L 340.836875 228.758125 
Q 342.836875 228.758125 342.836875 226.758125 
L 342.836875 213.08 
Q 342.836875 211.08 340.836875 211.08 
L 227.943125 211.08 
Q 225.943125 211.08 225.943125 213.08 
L 225.943125 226.758125 
Q 225.943125 228.758125 227.943125 228.758125 
z
" style="fill: #ffffff; opacity: 0.8; stroke: #cccccc; stroke-linejoin: miter"/>
   </g>
   <g id="line2d_87">
    <path d="M 229.943125 219.178437 
L 239.943125 219.178437 
L 249.943125 219.178437 
" style="fill: none; stroke: #1f77b4; stroke-width: 1.5; stroke-linecap: square"/>
   </g>
   <g id="text_40">
    <!-- SEED RL's R2D2 -->
    <g transform="translate(257.943125 222.678437)scale(0.1 -0.1)">
     <defs>
      <path id="DejaVuSans-53" d="M 3425 4513 
L 3425 3897 
Q 3066 4069 2747 4153 
Q 2428 4238 2131 4238 
Q 1616 4238 1336 4038 
Q 1056 3838 1056 3469 
Q 1056 3159 1242 3001 
Q 1428 2844 1947 2747 
L 2328 2669 
Q 3034 2534 3370 2195 
Q 3706 1856 3706 1288 
Q 3706 609 3251 259 
Q 2797 -91 1919 -91 
Q 1588 -91 1214 -16 
Q 841 59 441 206 
L 441 856 
Q 825 641 1194 531 
Q 1563 422 1919 422 
Q 2459 422 2753 634 
Q 3047 847 3047 1241 
Q 3047 1584 2836 1778 
Q 2625 1972 2144 2069 
L 1759 2144 
Q 1053 2284 737 2584 
Q 422 2884 422 3419 
Q 422 4038 858 4394 
Q 1294 4750 2059 4750 
Q 2388 4750 2728 4690 
Q 3069 4631 3425 4513 
z
" transform="scale(0.015625)"/>
      <path id="DejaVuSans-45" d="M 628 4666 
L 3578 4666 
L 3578 4134 
L 1259 4134 
L 1259 2753 
L 3481 2753 
L 3481 2222 
L 1259 2222 
L 1259 531 
L 3634 531 
L 3634 0 
L 628 0 
L 628 4666 
z
" transform="scale(0.015625)"/>
      <path id="DejaVuSans-44" d="M 1259 4147 
L 1259 519 
L 2022 519 
Q 2988 519 3436 956 
Q 3884 1394 3884 2338 
Q 3884 3275 3436 3711 
Q 2988 4147 2022 4147 
L 1259 4147 
z
M 628 4666 
L 1925 4666 
Q 3281 4666 3915 4102 
Q 4550 3538 4550 2338 
Q 4550 1131 3912 565 
Q 3275 0 1925 0 
L 628 0 
L 628 4666 
z
" transform="scale(0.015625)"/>
      <path id="DejaVuSans-52" d="M 2841 2188 
Q 3044 2119 3236 1894 
Q 3428 1669 3622 1275 
L 4263 0 
L 3584 0 
L 2988 1197 
Q 2756 1666 2539 1819 
Q 2322 1972 1947 1972 
L 1259 1972 
L 1259 0 
L 628 0 
L 628 4666 
L 2053 4666 
Q 2853 4666 3247 4331 
Q 3641 3997 3641 3322 
Q 3641 2881 3436 2590 
Q 3231 2300 2841 2188 
z
M 1259 4147 
L 1259 2491 
L 2053 2491 
Q 2509 2491 2742 2702 
Q 2975 2913 2975 3322 
Q 2975 3731 2742 3939 
Q 2509 4147 2053 4147 
L 1259 4147 
z
" transform="scale(0.015625)"/>
      <path id="DejaVuSans-4c" d="M 628 4666 
L 1259 4666 
L 1259 531 
L 3531 531 
L 3531 0 
L 628 0 
L 628 4666 
z
" transform="scale(0.015625)"/>
      <path id="DejaVuSans-27" d="M 1147 4666 
L 1147 2931 
L 616 2931 
L 616 4666 
L 1147 4666 
z
" transform="scale(0.015625)"/>
     </defs>
     <use xlink:href="#DejaVuSans-53"/>
     <use xlink:href="#DejaVuSans-45" x="63.476562"/>
     <use xlink:href="#DejaVuSans-45" x="126.660156"/>
     <use xlink:href="#DejaVuSans-44" x="189.84375"/>
     <use xlink:href="#DejaVuSans-20" x="266.845703"/>
     <use xlink:href="#DejaVuSans-52" x="298.632812"/>
     <use xlink:href="#DejaVuSans-4c" x="368.115234"/>
     <use xlink:href="#DejaVuSans-27" x="423.828125"/>
     <use xlink:href="#DejaVuSans-73" x="451.318359"/>
     <use xlink:href="#DejaVuSans-20" x="503.417969"/>
     <use xlink:href="#DejaVuSans-52" x="535.205078"/>
     <use xlink:href="#DejaVuSans-32" x="604.6875"/>
     <use xlink:href="#DejaVuSans-44" x="668.310547"/>
     <use xlink:href="#DejaVuSans-32" x="745.3125"/>
    </g>
   </g>
  </g>
 </g>
 <defs>
  <clipPath id="p41d6168113">
   <rect x="26.925" y="22.318125" width="242.598527" height="136.72"/>
  </clipPath>
  <clipPath id="pa0f9e4ffa6">
   <rect x="309.5475" y="22.318125" width="242.598527" height="136.72"/>
  </clipPath>
  <clipPath id="p7462f82575">
   <rect x="132.51" y="70.358125" width="129.6" height="72"/>
  </clipPath>
  <clipPath id="p24d4b8ceb6">
   <rect x="408.99" y="63.878125" width="129.6" height="72"/>
  </clipPath>
 </defs>
</svg>
